<?xml version="1.0" encoding="UTF-8"?>
<svg width="288px" height="74px" viewBox="0 0 288 74" version="1.1" xmlns="http://www.w3.org/2000/svg" xmlns:xlink="http://www.w3.org/1999/xlink">
    <title>Group</title>
    <defs>
        <polygon id="path-1" points="0 69.2219859 195.207 69.2219859 195.207 0 0 0"></polygon>
    </defs>
    <g id="Symbols" stroke="none" stroke-width="1" fill="none" fill-rule="evenodd">
        <g id="Logo_New-Transparent" transform="translate(-20.000000, 0.000000)">
            <g id="Group" transform="translate(20.000000, 1.142600)">
                <g id="Logo" transform="translate(215.267200, 0.000000)">
                    <path d="M71.785,35.893 C71.785,55.717 55.716,71.787 35.893,71.787 C16.07,71.787 -5.68434189e-14,55.717 -5.68434189e-14,35.893 C-5.68434189e-14,16.071 16.07,0 35.893,0 C55.716,0 71.785,16.071 71.785,35.893" id="Fill-1" fill="#FEFEFE"></path>
                    <path d="M71.785,35.893 C71.785,55.717 55.716,71.787 35.893,71.787 C16.07,71.787 -5.68434189e-14,55.717 -5.68434189e-14,35.893 C-5.68434189e-14,16.071 16.07,0 35.893,0 C55.716,0 71.785,16.071 71.785,35.893 Z" id="Stroke-3" stroke="#010202" stroke-width="0.286"></path>
                    <path d="M22.6795,30.8417 C23.3855,28.7267 27.9885,27.1597 30.4715,28.3477 C30.4715,28.3477 28.6365,26.8867 26.9055,26.9697 L27.9885,26.2667 C27.9885,26.2667 27.0915,25.3457 25.0365,25.8857 L25.8215,25.1537 C25.8215,25.1537 23.6265,24.5327 22.0615,25.5367 L23.0025,24.0717 C23.0025,24.0717 21.6025,23.1257 19.8145,23.8827 L20.2465,22.8817 C20.2465,22.8817 17.7825,22.1777 16.8905,22.6917 C16.8905,22.6917 22.6255,17.2527 33.1525,29.1337 L31.9365,26.2377 L30.9355,25.8857 L31.2835,25.1017 L29.1215,24.3957 L29.9065,23.5867 L27.0385,22.5017 L27.9045,21.5817 C27.9045,21.5817 27.1765,20.7177 25.4415,21.0137 L26.0095,20.2017 C26.0095,20.2017 23.5755,19.1207 22.8175,19.3627 C22.0615,19.6087 23.5755,18.2007 23.5755,18.2007 C23.5755,18.2007 19.7035,16.1137 17.9745,16.2207 C17.9745,16.2207 23.5175,13.5447 34.1795,27.4847 L33.8555,25.2917 L31.8235,23.5047 L32.5845,23.1257 L30.9355,21.6677 L31.6905,21.3947 C31.6905,21.3947 30.9085,19.7397 29.3125,18.9857 L30.2285,18.3897 C30.2285,18.3897 29.2005,16.0357 27.2285,15.7117 L28.6105,15.5207 C28.6105,15.5207 26.9055,13.2997 25.4985,13.4087 L26.3885,12.7307 C26.3885,12.7307 23.3315,9.4037 23.1945,9.5107 C23.1945,9.5107 28.6365,10.8617 33.7765,20.9037 C33.7765,20.9037 34.2345,21.3147 34.2345,20.6377 C34.2605,17.3877 34.1795,7.0747 37.5345,4.6917 C37.5345,4.6917 36.5905,6.3987 36.6435,7.2917 L37.8585,6.8597 C37.8585,6.8597 36.3175,9.4567 36.1265,10.0247 C35.9365,10.5647 37.2645,9.7277 37.2645,9.7277 L36.5595,11.4597 L37.9695,11.3787 L36.6985,14.4347 L36.9395,15.5207 L37.6665,15.5727 L36.6435,17.3047 L36.8855,19.7397 L37.4805,19.7957 C37.4805,19.7957 43.6525,10.0517 47.7895,9.0777 C47.7895,9.0777 44.8665,11.5667 44.5975,12.3267 C44.2975,13.0567 44.6245,13.1087 44.6245,13.1087 C44.6245,13.1087 43.1625,13.8147 42.6205,15.0317 C42.0525,16.2777 42.8355,15.8977 42.8355,15.8977 C42.8355,15.8977 41.8625,16.6057 41.5365,17.3047 C41.2155,18.0117 41.6205,18.3897 41.3485,18.7697 C41.0535,19.1207 39.8885,20.1747 39.5115,21.2027 C39.1315,22.2337 38.4295,21.9067 38.4805,23.2597 C38.4805,23.2597 37.1275,25.5617 36.9395,26.5077 L37.1585,27.0787 C37.1585,27.0787 44.6245,15.1377 53.3615,15.5207 C53.3615,15.5207 50.8675,16.2777 50.9295,16.8737 L51.3615,17.0087 C51.3615,17.0087 49.0605,16.9837 47.5415,17.9017 C47.5415,17.9017 47.7325,18.7697 48.1985,18.9567 C48.1985,18.9567 46.3825,19.0947 45.2975,20.0127 C45.2975,20.0127 45.3825,20.4457 46.0045,20.4997 C46.0045,20.4997 44.2195,20.6377 43.5425,21.5817 L43.7055,22.3417 C43.7055,22.3417 43.0295,22.2337 42.5685,22.5547 C42.5685,22.5547 38.5635,26.6967 37.6425,28.5657 C37.6425,28.5657 45.6265,19.4697 54.1745,22.0447 C54.1745,22.0447 52.1455,22.0937 51.4415,22.6117 C51.4415,22.6117 51.0605,22.8817 51.5495,23.3967 C51.5495,23.3967 50.4135,22.4747 48.5205,24.0197 C48.5205,24.0197 48.1985,24.1557 48.7625,24.5887 C48.7625,24.5887 46.5475,24.0717 45.8425,24.9917 C45.8425,24.9917 45.8165,25.5617 46.2715,25.8607 C46.2715,25.8607 44.5975,25.2917 44.0555,25.8857 C44.0555,25.8857 43.9765,26.6457 44.4085,26.8867 C44.4085,26.8867 42.8125,26.3737 42.4355,26.8867 C42.4355,26.8867 42.4355,27.3467 42.9485,27.4847 C42.9485,27.4847 39.2665,28.2957 37.8325,30.0807 L37.9165,30.4627 C42.0525,28.2417 44.0555,27.0787 48.5735,30.5957 C48.5735,30.5957 46.4645,29.5647 46.3265,29.7567 C46.1945,29.9477 46.0865,30.2167 46.1415,30.5137 C46.1415,30.5137 45.2455,28.9987 44.3565,29.3227 C43.4615,29.6497 44.1065,30.7837 44.1065,30.7837 C44.1065,30.7837 41.9125,29.0527 42.1925,31.2467 C42.1925,31.2467 39.5615,29.3227 37.2905,34.4137 L37.2905,34.8727 L34.0205,34.8997 C34.0205,34.8997 32.5295,31.6787 31.8785,31.4877 C31.8785,31.4877 30.9355,30.3537 29.4965,31.6237 C29.4965,31.6237 31.0405,29.6217 27.6065,30.9187 C27.6065,30.9187 28.4175,28.5657 25.2525,30.7317 C25.2525,30.7317 26.0095,29.0777 22.8675,30.8657 L22.6795,30.8417 Z" id="Fill-5" fill="#00A550"></path>
                    <path d="M31.6649,31.4076 C29.9859,32.9256 28.3659,34.3036 30.3669,37.3636 C30.9609,38.3096 31.9619,36.9036 31.9619,36.9036 C33.9359,33.8956 31.6649,31.4076 31.6649,31.4076" id="Fill-7" fill="#9C2D33"></path>
                    <path d="M30.8592,37.5795 C30.7052,37.5765 30.5742,37.4855 30.4602,37.3045 C29.8092,36.3105 29.5472,35.5075 29.5472,34.8155 C29.5472,33.4695 30.5482,32.5635 31.6522,31.5675 C31.8502,31.7985 32.6672,32.8455 32.6672,34.3555 C32.6672,35.0975 32.4602,35.9445 31.8702,36.8445 C31.7222,37.0495 31.2512,37.5925 30.8592,37.5795 L30.8592,37.5795 Z M31.5922,31.3265 L31.5042,31.4055 C29.8342,32.9125 28.2552,34.3385 30.2762,37.4235 C30.4272,37.6675 30.6232,37.7945 30.8512,37.8005 C31.4402,37.8165 32.0272,37.0035 32.0502,36.9675 C34.0532,33.9195 31.7702,31.3595 31.7462,31.3345 L31.6722,31.2545 L31.5922,31.3265 Z" id="Fill-9" fill="#9C2D33"></path>
                    <path d="M39.6698,31.2186 C41.3778,32.7046 42.9998,34.0886 40.9938,37.1466 C40.3748,38.0946 39.4018,36.6886 39.4018,36.6886 C37.4308,33.7066 39.6698,31.2186 39.6698,31.2186" id="Fill-11" fill="#9C2D33"></path>
                    <path d="M39.4901,36.6244 C38.9011,35.7274 38.6941,34.8834 38.6941,34.1384 C38.6941,32.6444 39.4901,31.6084 39.6851,31.3794 C40.8071,32.3584 41.8141,33.2594 41.8141,34.6024 C41.8141,35.2914 41.5531,36.0954 40.9041,37.0864 C40.7831,37.2714 40.6461,37.3634 40.4861,37.3654222 C40.0961,37.3694 39.6361,36.8324 39.4901,36.6244 L39.4901,36.6244 Z M39.5891,31.1434 C39.5671,31.1704 37.3121,33.7314 39.3081,36.7494 C39.3321,36.7844 39.9011,37.5934 40.4901,37.5864452 C40.7241,37.5824 40.9251,37.4564 41.0901,37.2084 C43.1301,34.0884 41.5031,32.6674 39.7761,31.1634 L39.6951,31.0924 L39.5891,31.1434 Z" id="Fill-13" fill="#9C2D33"></path>
                    <path d="M24.6551,46.8905 C25.7941,46.2405 25.6021,45.2415 24.6551,44.8055 C22.3011,43.7775 21.3011,41.3695 20.8391,41.1825 C18.2141,40.1505 16.2691,38.4475 16.2691,38.4475 C15.8891,39.5555 15.4831,39.9615 15.6761,41.8555 L18.6781,45.1305 C17.9211,46.9195 15.2691,47.4885 13.8881,51.6255 C13.8881,51.6255 15.7031,54.3625 17.2151,55.0685 L17.6761,55.2255 C17.0241,51.7115 24.6551,46.8905 24.6551,46.8905" id="Fill-15" fill="#231F20"></path>
                    <path d="M11.1229,47.0551 C11.1409,47.0861 12.8339,50.4021 13.8009,51.6921 L13.9769,51.5611 C13.0189,50.2841 11.3329,46.9821 11.3169,46.9511 L11.1229,47.0551 Z" id="Fill-17" fill="#231F20"></path>
                    <path d="M11.2626,47.2953 C11.9126,44.3773 15.6756,41.8563 15.6756,41.8563 L11.4546,36.4983 C11.2626,34.4413 12.1056,33.7073 12.1056,33.7073 C10.0466,31.5433 8.5326,27.2103 8.5326,27.2103 C8.1506,28.3473 7.2316,31.2473 7.4216,33.1393 L11.2896,37.2813 L11.7226,37.8493 C11.7226,40.0963 8.6406,41.2873 8.5326,44.1033 C8.5326,44.1033 9.7226,44.9163 10.9136,46.5673 C11.1826,46.9453 11.2626,47.2953 11.2626,47.2953" id="Fill-19" fill="#00A550"></path>
                    <path d="M12.5887,21.0951 C14.8097,28.2681 19.4877,34.5481 24.9837,37.7131 L20.8387,41.1821 C16.4297,39.8811 10.5047,33.1391 8.5317,27.2101 L12.5887,21.0951 Z" id="Fill-21" fill="#EC1D24"></path>
                    <path d="M9.5331,17.5184 C10.1891,17.8724 11.5081,18.5814 11.6601,18.6644 C11.7041,18.8624 11.9741,20.1234 11.9741,20.1234 C11.9741,20.1234 41.3991,57.2214 41.7021,57.6034 C41.5651,57.7204 41.4751,57.7954 41.3301,57.9184 C41.0071,57.5084 11.6241,20.3934 11.6241,20.3934 C11.6241,20.3934 11.5231,20.4744 11.4241,20.5524 C11.4731,20.4344 11.5211,20.3194 11.5211,20.3194 C11.5211,20.3194 10.3461,19.8284 10.1531,19.7464 C10.1041,19.5714 9.7281,18.2254 9.5331,17.5184 L9.5331,17.5184 Z M8.8821,17.0784 L9.7281,20.1184 C9.7281,20.1184 11.1521,20.7164 11.2641,20.7634 C11.3451,20.8644 41.2601,58.6494 41.2601,58.6494 L42.4051,57.6684 C42.4051,57.6684 12.5211,19.9944 12.4481,19.9014 C12.4261,19.7914 12.1111,18.3284 12.1111,18.3284 L8.7211,16.5004 L8.8821,17.0784 Z" id="Fill-23" fill="#231F20"></path>
                    <polygon id="Fill-25" fill="#231F20" points="11.5028 20.5204 11.8338 20.9104 12.5088 20.3424 12.1808 19.9514"></polygon>
                    <path d="M12.1864,19.9472 L12.5024,20.3492 C12.5934,20.2782 12.6254,20.3152 12.6384,20.3332 C12.6474,20.3422 12.7034,20.4182 12.6154,20.4932 L12.9444,20.8812 C13.2424,20.6322 13.2224,20.2422 13.0334,20.0122 C12.8524,19.7892 12.5054,19.6982 12.1864,19.9472" id="Fill-27" fill="#231F20"></path>
                    <polygon id="Fill-29" fill="#231F20" points="11.8944 21.0541 12.2054 21.4561 12.9354 20.8901 12.6234 20.4861"></polygon>
                    <path d="M11.1844,21.1185 C11.2014,21.3265 11.3324,21.5055 11.5254,21.5875 C11.7454,21.6805 11.9954,21.6305 12.2114,21.4525 L11.8864,21.0585 C11.8114,21.1235 11.7514,21.1325 11.7224,21.1195 C11.7054,21.1105 11.6944,21.0955 11.6924,21.0765 C11.6894,21.0435 11.7184,20.9885 11.8064,20.9315 L11.5324,20.4995 C11.2934,20.6525 11.1644,20.8785 11.1844,21.1185" id="Fill-31" fill="#231F20"></path>
                    <path d="M47.3299,46.8598 C46.3509,46.4088 46.4899,45.2108 47.3299,44.7538 C50.1139,43.3178 50.5749,41.3698 51.0349,41.1818 C53.6639,40.1508 55.6089,38.4468 55.6089,38.4468 C55.9859,39.5548 56.3929,39.9618 56.2039,41.8558 L53.2049,45.1308 C53.9559,46.9198 56.6109,47.4878 57.9869,51.6258 C57.9869,51.6258 56.1779,54.3628 54.6619,55.0678 L54.1989,55.2258 C54.7959,51.4658 47.3299,46.8598 47.3299,46.8598" id="Fill-33" fill="#231F20"></path>
                    <path d="M57.9002,51.5609 L58.0752,51.6919 C59.0472,50.4019 60.6682,47.1489 60.6862,47.1179 L60.4942,47.0139 C60.4752,47.0429 58.8562,50.2839 57.9002,51.5609" id="Fill-35" fill="#231F20"></path>
                    <path d="M60.6141,47.2953 C59.9671,44.3773 56.2041,41.8563 56.2041,41.8563 L60.4281,36.4983 C60.6141,34.4413 59.7741,33.7073 59.7741,33.7073 C61.8321,31.5433 63.3461,27.2103 63.3461,27.2103 C63.7261,28.3473 64.6461,31.2473 64.4571,33.1393 L60.5871,37.2813 L60.1531,37.8493 C60.1531,40.0963 63.2431,41.2873 63.3461,44.1033 C63.3461,44.1033 62.1571,44.9163 60.9681,46.5673 C60.6961,46.9453 60.6141,47.2953 60.6141,47.2953" id="Fill-37" fill="#00A550"></path>
                    <path d="M59.2879,21.0951 C57.0689,28.2681 52.3909,34.5481 46.8959,37.7131 L51.0349,41.1821 C55.4459,39.8811 61.3739,33.1391 63.3469,27.2101 L59.2879,21.0951 Z" id="Fill-39" fill="#EC1D24"></path>
                    <path d="M62.3436,17.516 C62.1486,18.223 61.7756,19.571 61.7306,19.746 C61.5336,19.828 60.3536,20.319 60.3536,20.319 C60.3536,20.319 60.4036,20.434 60.4506,20.552 C60.3516,20.474 60.2526,20.393 60.2526,20.393 C60.2526,20.393 30.8716,57.508 30.5456,57.919 C30.4016,57.795 30.3136,57.72 30.1756,57.604 C30.4776,57.222 59.9076,20.123 59.9076,20.123 C59.9076,20.123 60.1726,18.863 60.2136,18.665 C60.3696,18.582 61.6886,17.872 62.3436,17.516 L62.3436,17.516 Z M62.6316,16.785 L59.7666,18.328 C59.7666,18.328 59.4586,19.792 59.4326,19.901 C59.3586,19.995 29.4716,57.669 29.4716,57.669 L30.6166,58.65 C30.6166,58.65 60.5286,20.865 60.6126,20.764 C60.7226,20.716 62.1546,20.119 62.1546,20.119 L63.1536,16.502 L62.6316,16.785 Z" id="Fill-41" fill="#231F20"></path>
                    <polygon id="Fill-43" fill="#231F20" points="59.3641 20.3427 60.0471 20.9127 60.3721 20.5207 59.6891 19.9517"></polygon>
                    <path d="M58.8465,20.0077 C58.6585,20.2407 58.6335,20.6317 58.9335,20.8817 L59.2605,20.4937 C59.1755,20.4187 59.2345,20.3407 59.2415,20.3317 C59.2535,20.3147 59.2835,20.2787 59.3675,20.3457 L59.6855,19.9477 C59.3705,19.6977 59.0265,19.7877 58.8465,20.0077" id="Fill-45" fill="#231F20"></path>
                    <polygon id="Fill-47" fill="#231F20" points="58.9383 20.8905 59.6713 21.4575 59.9863 21.0545 59.2533 20.4855"></polygon>
                    <path d="M60.0751,20.931 C60.1611,20.988 60.1891,21.043 60.1861,21.077 C60.1841,21.095 60.1721,21.113 60.1551,21.12 C60.1291,21.132 60.0691,21.123 59.9901,21.059 L59.6701,21.452 C59.8841,21.63 60.1361,21.681 60.3531,21.588 C60.5451,21.509 60.6781,21.328 60.6941,21.12 C60.7111,20.88 60.5871,20.654 60.3461,20.502 L60.0751,20.931 Z" id="Fill-49" fill="#231F20"></path>
                    <polygon id="Fill-51" fill="#9C2D33" points="37.6424 60.2621 37.2644 34.9801 34.0994 34.9801 33.7184 60.2621"></polygon>
                    <path d="M37.1542,35.0912 C37.1582,35.3062 37.5252,59.9312 37.5302,60.1522 L33.8312,60.1522 C33.8342,59.9312 34.2042,35.3062 34.2082,35.0912 L37.1542,35.0912 Z M37.2642,34.8702 L33.9882,34.8702 L33.6082,60.3722 L37.7542,60.3722 L37.3712,34.8702 L37.2642,34.8702 Z" id="Fill-53" fill="#9C2D33"></path>
                    <path d="M33.4797,53.9222 L33.4507,54.3922 L33.5917,54.6142 C33.7787,54.9442 34.1267,55.5562 34.7587,55.3052 C34.7727,55.3002 35.4127,54.7552 35.4127,54.7552 C35.4127,54.7552 35.6037,54.5782 35.6667,54.5182 C35.7007,54.5972 35.7687,54.7512 35.7687,54.7512 C35.8867,55.0792 36.1067,55.6862 36.7167,55.4992 C37.5317,55.2182 37.9437,54.2012 37.9647,54.1592 L37.4907,53.9702 C37.4857,53.9782 37.1447,54.8112 36.5587,55.0142 C36.4637,55.0462 36.4017,55.0132 36.2467,54.5782 C36.1527,54.3192 36.0637,54.0762 35.8407,53.9892 C35.7577,53.9592 35.6247,53.9412 35.4647,54.0292 L34.9847,54.4832 L34.5597,54.8372 C34.4007,54.8992 34.2807,54.7942 34.0357,54.3622 C33.8947,54.1192 33.7507,53.8632 33.4797,53.9222 L33.4797,53.9222 Z" id="Fill-55" fill="#231F20"></path>
                    <path d="M33.4471,49.9139 L33.4241,50.3879 L33.5611,50.6059 C33.7511,50.9349 34.1011,51.5469 34.7341,51.2949 C34.7361,51.2919 35.3901,50.7619 35.3901,50.7619 C35.3901,50.7619 35.5661,50.5839 35.6361,50.5179 C35.6711,50.5989 35.7401,50.7519 35.7401,50.7519 C35.8621,51.0849 36.0831,51.7039 36.6991,51.4929 C37.4991,51.2099 37.9141,50.2249 37.9301,50.1809 L37.4611,49.9879 C37.4561,49.9969 37.1151,50.8029 36.5331,51.0109 C36.4391,51.0399 36.3851,51.0379 36.2191,50.5779 C36.1261,50.3179 36.0371,50.0709 35.8101,49.9839 C35.7261,49.9539 35.5931,49.9349 35.4341,50.0229 C35.4301,50.0249 34.9581,50.4879 34.9581,50.4879 L34.5431,50.8209 C34.3731,50.8899 34.2531,50.7859 34.0081,50.3529 C33.8641,50.1079 33.7201,49.8539 33.4471,49.9139" id="Fill-57" fill="#231F20"></path>
                    <path d="M33.5762,46.5096 L33.5472,46.9716 L33.6692,47.1686 C33.8392,47.4666 34.1932,48.0896 34.8182,47.8346 C34.8242,47.8326 35.4512,47.3276 35.4512,47.3276 C35.4512,47.3276 35.6122,47.1796 35.6822,47.1106 C35.7202,47.1906 35.7682,47.3066 35.7682,47.3066 C35.8832,47.6246 36.0952,48.2186 36.6982,48.0266 C37.4722,47.7766 37.8872,46.7856 37.9042,46.7426 L37.4332,46.5496 C37.3392,46.7756 36.9982,47.3936 36.5402,47.5396 C36.4542,47.5666 36.3992,47.5636 36.2472,47.1356 C36.1582,46.8846 36.0762,46.6506 35.8542,46.5716 C35.7702,46.5426 35.6412,46.5256 35.4852,46.6176 L35.0312,47.0416 L34.6192,47.3656 C34.4622,47.4286 34.3472,47.3296 34.1112,46.9156 C33.9842,46.6936 33.8432,46.4396 33.5762,46.5096 L33.5762,46.5096 Z" id="Fill-59" fill="#231F20"></path>
                    <path d="M33.4792,43.6633 L33.4572,44.1373 L33.5952,44.3543 C33.7792,44.6673 34.1192,45.2473 34.7172,44.9873 L35.3542,44.4873 C35.3542,44.4873 35.5302,44.3293 35.6002,44.2643 C35.6352,44.3463 35.6862,44.4663 35.6862,44.4663 C35.8002,44.7853 36.0112,45.3763 36.6102,45.1843 C37.3982,44.9363 37.7822,43.9383 37.8002,43.8953 L37.3242,43.7143 C37.3222,43.7213 37.0082,44.5233 36.4582,44.6973 C36.3702,44.7253 36.3182,44.7193 36.1682,44.2953 C36.0792,44.0453 35.9922,43.8123 35.7742,43.7293 C35.6892,43.7013 35.5612,43.6843 35.4042,43.7743 C35.4042,43.7773 34.9342,44.1993 34.9342,44.1993 L34.5182,44.5163 C34.3732,44.5823 34.2642,44.4853 34.0362,44.0933 C33.9022,43.8663 33.7492,43.6063 33.4792,43.6633 L33.4792,43.6633 Z" id="Fill-61" fill="#231F20"></path>
                    <path d="M33.6602,40.3616 L33.6312,40.8306 L33.7562,41.0276 C33.9342,41.3326 34.2642,41.8996 34.8442,41.6576 C34.8482,41.6566 35.4782,41.1546 35.4782,41.1546 C35.4782,41.1546 35.6242,41.0176 35.6842,40.9596 C35.7202,41.0356 35.7682,41.1456 35.7682,41.1456 C35.8722,41.4306 36.0872,42.0206 36.6692,41.8236 C37.4212,41.5776 37.8102,40.6386 37.8252,40.5996 L37.3522,40.4066 C37.3512,40.4156 37.0342,41.1676 36.5082,41.3406 C36.4382,41.3656 36.3952,41.3776 36.2472,40.9716 C36.1642,40.7416 36.0762,40.5036 35.8582,40.4236 C35.7752,40.3946 35.6412,40.3806 35.4852,40.4716 C35.4852,40.4746 35.0552,40.8706 35.0552,40.8706 L34.6482,41.1876 C34.5182,41.2416 34.4162,41.1466 34.1982,40.7716 C34.0682,40.5496 33.9242,40.3006 33.6602,40.3616 L33.6602,40.3616 Z" id="Fill-63" fill="#231F20"></path>
                    <path d="M33.6892,37.6523 L33.6222,38.1253 L33.7512,38.3303 C33.9272,38.6433 34.2592,39.2243 34.8432,38.9813 C34.8492,38.9793 35.4782,38.4773 35.4782,38.4773 C35.4782,38.4773 35.6222,38.3393 35.6842,38.2813 C35.7202,38.3593 35.7682,38.4673 35.7682,38.4673 C35.8722,38.7533 36.0872,39.3423 36.6692,39.1463 C37.4212,38.8973 37.8102,37.9583 37.8252,37.9183 L37.3522,37.7263 C37.3512,37.7353 37.0342,38.4873 36.5082,38.6613 C36.4382,38.6863 36.3952,38.7003 36.2472,38.2953 C36.1642,38.0623 36.0762,37.8243 35.8582,37.7453 C35.7752,37.7163 35.6412,37.6983 35.4852,37.7933 C35.4852,37.7963 35.0552,38.1913 35.0552,38.1913 L34.6462,38.5113 C34.5182,38.5633 34.4132,38.4633 34.1942,38.0793 C34.0602,37.8433 33.9362,37.6213 33.6892,37.6523 L33.6892,37.6523 Z" id="Fill-65" fill="#231F20"></path>
                    <path d="M33.6053,34.7348 L33.5633,35.1938 L33.6723,35.3848 C33.8163,35.6728 34.1153,36.2728 34.7123,36.0298 L35.3203,35.5498 C35.3203,35.5498 35.4843,35.3988 35.5533,35.3358 C35.5853,35.4108 35.6463,35.5378 35.6463,35.5378 C35.7503,35.8168 35.9743,36.3928 36.5373,36.1948 C37.2713,35.9838 37.7453,35.0538 37.7633,35.0148 L37.3083,34.7858 C37.2003,34.9988 36.8223,35.5828 36.3803,35.7118 C36.3053,35.7368 36.2653,35.7288 36.1223,35.3558 L35.7263,34.8028 L35.3583,34.8388 L34.8983,35.2658 L34.5213,35.5588 C34.4093,35.6038 34.3283,35.5588 34.1263,35.1548 C34.0173,34.9368 33.8813,34.6668 33.6053,34.7348" id="Fill-67" fill="#231F20"></path>
                    <path d="M14.4315,55.7035 C16.1975,56.5335 19.0855,56.3005 21.4065,56.1135 C22.8875,55.9935 24.4155,55.8705 24.7065,56.1565 L24.7285,56.2145 C24.6825,56.8325 23.6875,56.8705 22.4905,56.8525 C21.7385,56.8405 21.2425,56.8365 21.0245,57.0925 C20.6965,57.5045 20.5775,57.7975 20.6465,58.0215 L21.0255,57.7725 C21.1185,57.7995 21.1375,57.8715 21.1365,57.8885 C21.1365,57.8885 21.1425,57.7615 21.4205,57.4155 C21.5185,57.3495 22.0765,57.3595 22.4835,57.3635 C23.6085,57.3785 25.1495,57.4015 25.2375,56.2495 C25.2375,56.2465 25.0635,55.7915 25.0635,55.7915 C24.6265,55.3635 23.4365,55.4375 21.3665,55.6045 C19.1065,55.7865 16.2925,56.0145 14.6485,55.2405 L14.4315,55.7035 Z" id="Fill-69" fill="#231F20"></path>
                    <path d="M14.3778,55.6688 C14.3778,55.6688 16.9438,57.7718 17.5578,58.2748 C16.7998,58.4758 13.7418,59.2898 13.7418,59.2898 L13.8738,59.7798 L18.6508,58.5118 L14.7008,55.2748 L14.3778,55.6688 Z" id="Fill-71" fill="#231F20"></path>
                    <path d="M13.6971,59.765 C13.8491,59.836 17.4681,61.551 21.2631,60.891 L21.1771,60.39 C17.5481,61.021 13.9551,59.324 13.9191,59.304 L13.6971,59.765 Z" id="Fill-73" fill="#231F20"></path>
                    <path d="M24.7547,56.3441 C25.1377,57.0961 25.2417,57.7391 25.0667,58.2041 C24.8977,58.6501 24.5247,58.8011 24.5077,58.8041 L24.6867,59.2831 C24.7097,59.2751 25.2797,59.0561 25.5377,58.3991 C25.7767,57.7861 25.6667,57.0181 25.2097,56.1141 L24.7547,56.3441 Z" id="Fill-75" fill="#231F20"></path>
                    <path d="M50.1493,55.6044 C48.0193,55.4364 46.8893,55.3634 46.4593,55.7934 C46.3363,55.9164 46.2793,56.0744 46.2913,56.2514 C46.3533,57.4014 47.9033,57.3784 49.0383,57.3634 C49.4443,57.3594 50.0053,57.3504 50.1183,57.4284 C50.1183,57.4344 50.2943,57.7124 50.2943,57.7124 C50.2943,57.7104 50.2923,57.7054 50.2923,57.7034 C50.2923,57.6764 50.3213,57.6634 50.3423,57.6414 C50.3183,57.7374 50.2543,58.0764 50.2543,58.0764 C50.4213,58.1084 50.6373,58.0824 50.7513,57.9024 C50.9043,57.6514 50.6993,57.3414 50.5033,57.1004 C50.2953,56.8454 49.8553,56.8404 49.0303,56.8534 C47.8323,56.8704 46.8363,56.8324 46.7973,56.2164 C46.7963,56.1764 46.8033,56.1664 46.8213,56.1544 C47.1013,55.8704 48.6973,56.0004 50.1063,56.1134 C52.4313,56.3004 55.3223,56.5334 57.0693,55.7014 L56.8493,55.2404 C55.2213,56.0144 52.4113,55.7864 50.1493,55.6044" id="Fill-77" fill="#231F20"></path>
                    <path d="M52.9911,58.1903 L52.5461,58.5303 L57.2111,59.4863 L57.3091,58.9833 C57.3091,58.9833 54.5681,58.4243 53.7441,58.2573 C54.4391,57.7243 57.1141,55.6723 57.1141,55.6723 L56.8061,55.2693 L52.9911,58.1903 Z" id="Fill-79" fill="#231F20"></path>
                    <path d="M50.1141,60.3344 L50.0621,60.8424 C54.6511,61.3074 57.2951,59.5204 57.4021,59.4464 L57.1141,59.0234 C57.0911,59.0424 54.5041,60.7794 50.1141,60.3344" id="Fill-81" fill="#231F20"></path>
                    <path d="M45.9618,58.4393 C46.1938,59.0183 46.6858,59.1923 46.7038,59.2013 L46.8738,58.7203 C46.8608,58.7153 46.5728,58.6023 46.4298,58.2383 C46.2568,57.7873 46.3748,57.1333 46.7708,56.3443 L46.3198,56.1133 C45.8428,57.0603 45.7238,57.8393 45.9618,58.4393" id="Fill-83" fill="#231F20"></path>
                    <path d="M49.954,58.1942 C49.886,58.5222 49.813,58.9902 49.813,59.7032 C49.813,60.6002 49.958,61.8022 50.391,63.2362 C49.148,63.8392 38.505,68.5972 21.183,63.6592 C21.35,63.2012 21.639,62.2162 21.639,60.8632 C21.639,60.1382 21.527,59.2942 21.297,58.3912 C23.704,59.1322 36.591,62.6542 49.954,58.1942 L49.954,58.1942 Z M50.225,57.5852 C35.497,62.6912 21.18,57.8252 21.036,57.7772 C21.036,57.7772 20.994,57.8952 20.952,58.0162 C20.829,58.0532 20.708,58.0902 20.708,58.0902 C21.017,59.1092 21.124,60.0392 21.124,60.8422 C21.124,62.5902 20.617,63.7092 20.61,63.7272 L20.484,63.9962 L20.769,64.0802 C39.512,69.5132 50.691,63.6592 50.804,63.5972 L50.99,63.4982 L50.925,63.2992 C49.862,59.9422 50.538,57.9282 50.548,57.9102 L50.722,57.4132 L50.225,57.5852 Z" id="Fill-85" fill="#231F20"></path>
                    <path d="M29.8231,62.6161 C29.8231,62.5311 29.8521,62.5311 29.9861,62.5311 C30.0951,62.5641 30.4471,62.6161 30.3961,62.9681 C30.3401,63.3481 29.9341,63.2931 29.7161,63.2661 L29.8231,62.6161 Z" id="Fill-87" fill="#FEFEFE"></path>
                    <path d="M38.6122,62.16 C38.5922,62.186 38.5102,62.291 38.3762,62.481 C38.3492,62.452 38.2932,62.428 38.2372,62.374 C38.1552,62.316 38.1022,62.291 38.0752,62.264 C38.0212,62.344 37.9372,62.428 37.8332,62.531 C37.7782,62.506 37.6942,62.428 37.5352,62.316 C37.5892,62.186 37.6672,62.105 37.8062,62.021 C37.8332,62.021 37.8842,62.047 37.9372,62.105 C37.9952,62.16 38.0462,62.21 38.0752,62.21 C38.1022,62.186 38.1312,62.16 38.1842,62.077 C38.2372,62.021 38.2932,61.967 38.2932,61.94 C38.3762,61.993 38.4802,62.077 38.6122,62.16" id="Fill-89" fill="#231F20"></path>
                    <path d="M38.9706,64.077 L38.9706,64.104 C38.9946,64.214 38.9706,64.322 38.8906,64.458 L38.7826,64.484 C38.5926,64.484 38.4556,64.431 38.3756,64.296 C38.3226,64.214 38.2926,64.05 38.2656,63.862 C38.2656,63.834 38.2376,63.808 38.1846,63.808 C38.0746,63.834 37.9696,63.916 37.8846,64.077 C37.8326,64.244 37.7786,64.405 37.7266,64.565 C37.6666,64.729 37.5886,64.835 37.5046,64.835 C37.3466,64.835 37.2366,64.703 37.1276,64.431 C37.0746,64.244 37.0186,64.023 37.0186,63.808 C36.9946,63.404 37.1276,63.077 37.4306,62.883 C37.5346,62.832 37.6426,62.806 37.8066,62.806 C37.8326,62.78 37.8846,62.78 37.9696,62.78 L38.1306,62.78 C38.2926,62.78 38.4296,62.754 38.5106,62.673 C38.5106,62.78 38.4056,62.832 38.2106,62.861 C38.1556,62.883 38.0216,62.883 37.8326,62.914 C37.5886,62.914 37.4036,63.021 37.2906,63.187 C37.1836,63.348 37.1276,63.537 37.1586,63.781 C37.1586,63.916 37.1836,64.05 37.2366,64.19 C37.3166,64.375 37.4306,64.458 37.5346,64.431 C37.5886,64.431 37.6426,64.347 37.7266,64.19 C37.8326,63.889 37.9166,63.755 37.9376,63.699 C38.0216,63.537 38.1556,63.43 38.2656,63.43 C38.3496,63.43 38.4056,63.456 38.4056,63.537 C38.4056,63.537 38.4296,63.592 38.4296,63.724 C38.4296,63.972 38.5926,64.104 38.8606,64.104 C38.9156,64.077 38.9406,64.077 38.9706,64.077" id="Fill-91" fill="#231F20"></path>
                    <path d="M39.9442,62.4525 C39.9182,62.4815 39.8602,62.5925 39.7282,62.7795 C39.6702,62.7535 39.6452,62.7265 39.5612,62.6995 C39.5112,62.6435 39.4592,62.5925 39.4292,62.5925 C39.3802,62.6435 39.2942,62.7265 39.1882,62.8605 C39.1322,62.8325 39.0242,62.7795 38.8902,62.6435 C38.9162,62.5305 38.9952,62.4275 39.1322,62.3445 C39.1572,62.3445 39.2142,62.3745 39.2662,62.4275 C39.3222,62.4815 39.3802,62.5065 39.4022,62.5305 C39.4292,62.5065 39.4802,62.4525 39.5112,62.3995 C39.5612,62.3165 39.6152,62.2645 39.6152,62.2385 C39.6962,62.2915 39.8092,62.3745 39.9442,62.4525" id="Fill-93" fill="#231F20"></path>
                    <path d="M39.9442,63.4296 C39.9702,63.5096 39.9182,63.6986 39.8092,63.9466 C39.6962,64.2686 39.3802,64.4316 38.8902,64.4586 C38.8902,64.4046 38.9162,64.2686 38.9702,64.0766 C39.2142,64.0236 39.3482,63.9976 39.4022,63.9976 C39.5612,63.9466 39.6962,63.8616 39.7822,63.7816 C39.7572,63.6986 39.7282,63.6436 39.6962,63.6166 C39.6452,63.6986 39.5922,63.7246 39.5112,63.7246 L39.4292,63.7246 C39.4022,63.6986 39.3802,63.6436 39.3802,63.5916 C39.3802,63.5366 39.4022,63.4296 39.4592,63.2936 C39.5372,63.1586 39.5922,63.0766 39.6452,63.0766 C39.6962,63.0766 39.7572,63.1026 39.8342,63.2146 C39.9182,63.2936 39.9442,63.3746 39.9442,63.4296" id="Fill-95" fill="#231F20"></path>
                    <path d="M41.5936,63.0765 C41.5936,63.1325 41.5936,63.1875 41.5676,63.2665 C41.5676,63.3485 41.5366,63.4035 41.5116,63.4565 C41.4866,63.4565 41.4566,63.4295 41.4056,63.4565 L41.3246,63.4825 C41.2956,63.5635 41.2156,63.7555 41.1326,64.0505 C41.0536,64.2965 40.9446,64.4845 40.8616,64.5935 C40.7296,64.7545 40.5666,64.8345 40.3486,64.8635 C40.0796,64.9155 39.8886,64.9155 39.6966,64.8635 C40.0486,64.7285 40.2916,64.6185 40.4846,64.4845 C40.7296,64.3225 40.9176,64.0765 41.0276,63.8345 C41.0766,63.6745 41.1326,63.5095 41.1886,63.3485 C41.2696,63.1585 41.3486,63.0505 41.4866,63.0215 C41.4866,63.0215 41.5116,63.0215 41.5366,63.0505 C41.5676,63.0505 41.5676,63.0505 41.5936,63.0765" id="Fill-97" fill="#231F20"></path>
                    <path d="M42.8661,63.9164 L42.7321,63.9464 C42.5981,63.9714 42.4591,63.9464 42.3521,63.8084 C42.2441,63.7244 42.1921,63.5914 42.1621,63.4294 C42.1081,63.1584 42.0531,62.8604 42.0011,62.5064 C41.9131,62.1604 41.8901,61.9114 41.8621,61.7494 C41.9131,61.6424 41.9761,61.5074 42.0251,61.3724 L42.0531,61.3994 C42.1921,62.0774 42.2691,62.6724 42.3771,63.2144 C42.4031,63.3204 42.4351,63.4294 42.5161,63.4824 C42.5981,63.5374 42.6991,63.5634 42.8121,63.5374 L42.9181,63.5374 L42.9481,63.5374 C42.9481,63.5914 42.9181,63.6984 42.8661,63.9164" id="Fill-99" fill="#231F20"></path>
                    <path d="M43.4071,63.8085 C43.3291,63.8345 43.2711,63.8345 43.2451,63.8085 C43.1891,63.8345 43.1101,63.8615 43.0001,63.8885 C43.0001,63.8885 42.9481,63.9165 42.8361,63.9165 C42.8361,63.8085 42.8361,63.6985 42.8661,63.5375 L42.9181,63.5375 C42.9481,63.5375 42.9731,63.5095 42.9731,63.5095 C43.0851,63.5095 43.1391,63.4295 43.1891,63.3485 C43.2161,63.2935 43.2711,63.1875 43.2981,63.0505 C43.3291,63.0505 43.3291,63.0505 43.3511,63.0765 L43.3511,63.4295 C43.3771,63.4295 43.4071,63.4295 43.4901,63.4035 C43.5691,63.4035 43.5941,63.4035 43.5941,63.4565 C43.6281,63.5095 43.5941,63.5635 43.5941,63.6435 C43.5941,63.7245 43.5691,63.7815 43.5691,63.7815 C43.5691,63.7815 43.5431,63.7815 43.4901,63.8085 L43.4071,63.8085 Z" id="Fill-101" fill="#231F20"></path>
                    <path d="M43.8387,61.8046 C43.8137,61.8886 43.7287,61.9926 43.6517,62.1596 C43.5427,62.0776 43.4897,62.0476 43.4897,62.0476 C43.4067,61.9926 43.3767,61.9676 43.3517,61.9106 C43.3767,61.8336 43.4617,61.7496 43.5427,61.6166 C43.5947,61.6426 43.7057,61.7226 43.8387,61.8046" id="Fill-103" fill="#231F20"></path>
                    <path d="M44.2196,62.2382 L44.2196,62.2912 C44.1646,62.3442 44.0826,62.4272 43.9996,62.5642 C43.9456,62.5302 43.9196,62.5302 43.8386,62.4812 C43.7866,62.4522 43.7286,62.4272 43.7056,62.3992 C43.6526,62.4812 43.5946,62.5642 43.4906,62.6992 C43.4616,62.6732 43.4076,62.6442 43.3516,62.5922 C43.2716,62.5642 43.2156,62.5302 43.1896,62.5062 C43.2156,62.4522 43.2716,62.3442 43.3766,62.1862 L43.4076,62.1862 C43.4616,62.2102 43.4906,62.2382 43.5696,62.2642 C43.6276,62.3162 43.6786,62.3442 43.7056,62.3442 C43.7286,62.3442 43.7866,62.2382 43.8936,62.1052 C44.0316,62.1602 44.1366,62.1862 44.2196,62.2382" id="Fill-105" fill="#231F20"></path>
                    <path d="M44.7323,63.1327 C44.7583,63.2147 44.7323,63.3207 44.7053,63.5367 C44.6253,63.5367 44.5973,63.5637 44.6253,63.5637 C44.5453,63.5637 44.4603,63.5637 44.3813,63.5087 C44.3563,63.4827 44.3563,63.4567 44.2973,63.4567 L44.2713,63.5087 C44.2453,63.5367 44.2193,63.5917 44.1903,63.5917 C44.1653,63.6437 44.1063,63.6747 44.0313,63.6747 C43.9763,63.6987 43.9203,63.6987 43.8133,63.6987 C43.8133,63.7247 43.7873,63.7247 43.7283,63.7247 C43.7063,63.7557 43.6783,63.7557 43.6523,63.7557 C43.5943,63.7807 43.5693,63.7807 43.5123,63.7807 C43.5123,63.7247 43.5123,63.6747 43.5433,63.5917 C43.5433,63.5087 43.5693,63.4297 43.5693,63.4037 C43.5693,63.4037 43.5943,63.4037 43.6523,63.3747 C43.7873,63.3487 43.8693,63.2937 43.9203,63.2147 L44.0003,62.8827 L44.0553,62.8827 C44.0553,62.8827 44.0553,62.9147 44.0833,62.9147 C44.0553,63.0217 44.0553,63.1587 44.0313,63.2937 L44.1063,63.2937 C44.1903,63.2937 44.2453,63.2417 44.2713,63.1587 C44.2713,63.1027 44.2973,63.0217 44.2973,62.9147 C44.3303,62.8327 44.3303,62.8067 44.3563,62.7797 C44.3813,62.7797 44.3813,62.8067 44.4083,62.8067 L44.4083,63.0767 C44.4083,63.1027 44.4353,63.1327 44.4873,63.1587 C44.5143,63.1587 44.5713,63.1877 44.6253,63.1587 C44.7053,63.1587 44.7323,63.1327 44.7323,63.1327" id="Fill-107" fill="#231F20"></path>
                    <path d="M44.7586,63.5092 L44.7326,63.4562 C44.7046,63.4292 44.7046,63.3742 44.7046,63.2932 L44.7046,63.1332 L44.7586,63.1332 C44.8946,63.0762 45.0336,62.9942 45.1406,62.8832 C45.2716,62.7542 45.2976,62.5922 45.2716,62.4522 C45.2456,62.2912 45.1406,62.1292 45.0336,61.9402 C44.8946,61.7762 44.7826,61.6422 44.6526,61.4792 L44.6526,61.5072 C44.6526,61.5642 44.7046,61.6742 44.7586,61.8602 C44.7826,61.9922 44.8396,62.1292 44.8656,62.2102 C44.8946,62.3992 44.9216,62.5642 44.9486,62.6992 C44.9216,62.6992 44.9216,62.7272 44.9216,62.7272 C44.8946,62.7272 44.8946,62.6992 44.8656,62.6442 C44.8396,62.5302 44.7826,62.3442 44.7046,62.1292 C44.6246,61.8892 44.5716,61.7222 44.5456,61.6162 C44.4596,61.3172 44.4596,61.0482 44.5146,60.8012 C44.6246,60.8572 44.7586,61.0482 45.0036,61.4262 C45.1946,61.7762 45.3256,62.0472 45.3556,62.1862 C45.4066,62.3742 45.4066,62.6162 45.3556,62.8612 C45.2976,63.1332 45.1946,63.3212 45.0336,63.4292 C44.9746,63.4562 44.8946,63.4832 44.7586,63.5092" id="Fill-109" fill="#231F20"></path>
                    <path d="M45.8163,61.1024 C45.8163,61.1554 45.8163,61.1824 45.8423,61.2374 C45.8423,61.2914 45.8683,61.3724 45.8943,61.4524 C45.9503,61.5334 45.9773,61.6164 45.9773,61.6744 C46.0873,62.0214 46.1413,62.2914 46.1143,62.4274 L46.0873,62.4524 L46.0303,62.3164 C46.0043,62.2104 45.9503,62.0474 45.8683,61.8334 C45.7923,61.6164 45.7333,61.4524 45.7063,61.3434 C45.6273,61.0244 45.5993,60.7484 45.6583,60.5044 C45.8163,60.5864 45.9773,60.7754 46.1943,61.1024 C46.3823,61.3994 46.4903,61.6744 46.5473,61.8594 C46.6533,62.2104 46.6533,62.5064 46.5733,62.7534 C46.4643,63.0504 46.2463,63.2414 45.9233,63.3484 C45.8423,63.3744 45.7923,63.3744 45.7063,63.4034 C45.7063,63.3484 45.7583,63.3204 45.8163,63.2664 C45.8943,63.2144 45.9503,63.1874 45.9773,63.1584 C46.1413,62.9404 46.2713,62.7794 46.3513,62.6444 C46.4643,62.4274 46.4903,62.2104 46.4363,62.0214 C46.3823,61.8594 46.2973,61.6984 46.1683,61.5334 C46.0303,61.3994 45.9233,61.2374 45.8163,61.1024" id="Fill-111" fill="#231F20"></path>
                    <path d="M19.8036,44.3226 C20.3656,45.3176 22.1446,45.5906 25.0926,45.1346 L25.0406,44.7916 C21.5656,45.3276 20.4376,44.7416 20.1056,44.1506 C19.5006,43.0896 20.9586,41.3106 20.9736,41.2916 L20.7056,41.0696 C20.6406,41.1506 19.0826,43.0516 19.8036,44.3226" id="Fill-113" fill="#FEFEFE"></path>
                    <path d="M50.8182,41.3837 C50.8302,41.4027 52.2892,43.1847 51.6862,44.2487 C51.3522,44.8347 50.2262,45.4217 46.7482,44.8827 L46.6932,45.2257 C49.6442,45.6837 51.4232,45.4117 51.9902,44.4197 C52.7092,43.1487 51.1502,41.2467 51.0842,41.1637 L50.8182,41.3837 Z" id="Fill-115" fill="#FEFEFE"></path>
                    <path d="M25.746,61.9428 L25.65,61.9318 C25.637,61.6408 25.454,61.3008 25.092,61.2498 C24.914,61.2208 24.722,61.3028 24.688,61.5168 C24.618,62.0298 25.773,62.2648 25.669,62.9678 C25.635,63.2588 25.345,63.5568 24.847,63.4828 C24.584,63.4408 24.428,63.2998 24.326,63.2888 C24.249,63.2758 24.205,63.3308 24.2,63.3848 L24.12,63.3708 L24.12,62.6328 L24.202,62.6438 C24.243,62.8148 24.358,63.2888 24.826,63.3508 C25.106,63.3918 25.277,63.2148 25.302,63.0338 C25.331,62.8358 25.29,62.7098 24.818,62.3418 C24.526,62.1188 24.326,61.9378 24.371,61.5958 C24.431,61.2058 24.772,61.0598 25.087,61.1068 C25.299,61.1358 25.47,61.2808 25.558,61.2918 C25.65,61.3048 25.686,61.2328 25.694,61.1928 L25.771,61.2028 L25.746,61.9428 Z" id="Fill-117" fill="#231F20"></path>
                    <path d="M27.5702,63.7611 C27.3982,63.7091 27.3652,63.6841 27.4022,63.4341 L27.4972,62.7551 C27.5152,62.6151 27.5692,62.2101 27.1402,62.1451 C26.9312,62.1191 26.7442,62.2051 26.5952,62.3611 L26.5932,62.3611 L26.7352,61.3231 L26.7162,61.3121 C26.5402,61.3481 26.3682,61.3721 26.2012,61.3931 L26.1922,61.4511 C26.2062,61.4481 26.2372,61.4521 26.2582,61.4521 C26.4122,61.4761 26.4032,61.5441 26.3882,61.6511 L26.1612,63.2641 C26.1292,63.5141 26.0912,63.5311 25.9012,63.5301 L25.8932,63.5811 L26.6472,63.6841 L26.6542,63.6351 C26.4882,63.5931 26.4242,63.5681 26.4582,63.3041 L26.5742,62.4791 C26.7372,62.3361 26.8822,62.3011 26.9812,62.3161 C27.1792,62.3421 27.2352,62.4861 27.2062,62.7131 L27.1092,63.3961 C27.0682,63.6591 27.0032,63.6641 26.8292,63.6611 L26.8212,63.7141 L27.5622,63.8131 L27.5702,63.7611 Z" id="Fill-119" fill="#231F20"></path>
                    <path d="M28.6786,63.5331 C28.6616,63.6401 28.6486,63.6771 28.5316,63.7161 C28.5006,63.7241 28.3806,63.7551 28.3076,63.7461 C28.1786,63.7291 28.0906,63.6081 28.1116,63.4481 L28.1126,63.4401 C28.1296,63.3231 28.1916,63.1391 28.7426,63.0381 L28.6786,63.5331 Z M29.1906,63.8021 C29.1506,63.8311 29.0996,63.8551 29.0266,63.8451 C28.9266,63.8341 28.9386,63.7321 28.9526,63.6351 L29.0376,62.9661 C29.0696,62.7591 29.1136,62.4161 28.5906,62.3461 C28.1906,62.2911 27.9916,62.5141 27.9736,62.6501 C27.9656,62.7041 27.9926,62.8091 28.1056,62.8211 C28.1916,62.8351 28.2706,62.7661 28.2796,62.6971 C28.2836,62.6651 28.2736,62.6121 28.2816,62.5611 C28.2936,62.4521 28.4366,62.4101 28.5536,62.4251 C28.6546,62.4401 28.8136,62.5021 28.7816,62.7491 L28.7526,62.9541 C28.1576,63.0981 27.8326,63.1741 27.7876,63.5151 C27.7566,63.7461 27.9236,63.8981 28.1126,63.9221 C28.3046,63.9481 28.5066,63.8361 28.6516,63.7401 C28.6366,63.9871 28.7816,64.0141 28.8466,64.0181 C28.9026,64.0261 29.0096,64.0391 29.1816,63.8921 L29.1906,63.8021 Z" id="Fill-121" fill="#231F20"></path>
                    <path d="M29.5038,63.7806 C29.4788,63.9716 29.4228,63.9736 29.2238,63.9846 L29.2178,64.0366 L30.0588,64.1436 L30.0668,64.0926 C29.8838,64.0646 29.7698,64.0326 29.8018,63.7986 L29.9008,63.0256 C29.9138,62.9146 30.0908,62.7636 30.1728,62.7726 C30.2578,62.7836 30.2778,62.9106 30.3998,62.9256 C30.4858,62.9366 30.5398,62.8776 30.5498,62.7926 C30.5658,62.6766 30.5068,62.5946 30.3868,62.5846 C30.2568,62.5636 30.1268,62.6196 29.9318,62.8436 L29.9228,62.8436 L29.9608,62.5306 L29.9468,62.5256 C29.7678,62.5726 29.5838,62.6126 29.4058,62.6436 L29.3978,62.6996 C29.4318,62.6966 29.4718,62.6966 29.5188,62.6996 C29.5738,62.7056 29.6428,62.7196 29.6138,62.9256 L29.5038,63.7806 Z" id="Fill-123" fill="#231F20"></path>
                    <path d="M30.7274,64.3851 C30.6884,64.6661 30.6634,64.8641 30.4894,64.8361 C30.3674,64.8221 30.3574,64.6151 30.2074,64.5961 C30.1404,64.5831 30.0604,64.6301 30.0484,64.7091 C30.0354,64.8351 30.1894,64.9191 30.3484,64.9421 C30.8054,65.0001 30.9924,64.6661 31.0394,64.2681 L31.2344,62.6991 L31.2184,62.6861 C31.0264,62.7331 30.8374,62.7731 30.6504,62.8041 L30.6414,62.8581 C30.6954,62.8561 30.7454,62.8561 30.7914,62.8641 C30.8474,62.8701 30.9124,62.8821 30.8864,63.0861 L30.7274,64.3851 Z M30.9564,62.0571 C30.9474,62.1211 30.9844,62.2361 31.1074,62.2541 C31.2144,62.2641 31.3004,62.1991 31.3134,62.1001 C31.3264,62.0041 31.2554,61.9141 31.1534,61.9021 C31.0284,61.8891 30.9644,61.9901 30.9564,62.0571 L30.9564,62.0571 Z" id="Fill-125" fill="#231F20"></path>
                    <path d="M32.8885,64.2557 C32.8455,64.2827 32.7965,64.3137 32.7225,64.3007 C32.6215,64.2927 32.6355,64.1927 32.6425,64.0927 L32.7225,63.4197 C32.7465,63.2147 32.7885,62.8737 32.2605,62.8147 C31.8595,62.7637 31.6645,62.9907 31.6475,63.1247 C31.6425,63.1797 31.6755,63.2807 31.7815,63.2937 C31.8725,63.3097 31.9435,63.2397 31.9565,63.1667 C31.9595,63.1367 31.9435,63.0807 31.9565,63.0317 C31.9685,62.9247 32.1065,62.8777 32.2235,62.8907 C32.3315,62.9067 32.4845,62.9617 32.4585,63.2087 L32.4345,63.4147 C31.8405,63.5697 31.5205,63.6497 31.4815,63.9957 C31.4535,64.2237 31.6185,64.3747 31.8075,64.3957 C32.0015,64.4187 32.2025,64.2987 32.3455,64.2007 C32.3345,64.4557 32.4835,64.4747 32.5435,64.4817 C32.5995,64.4857 32.7115,64.4997 32.8765,64.3467 L32.8885,64.2557 Z M32.3665,63.9977 C32.3555,64.1007 32.3375,64.1407 32.2245,64.1817 C32.1935,64.1937 32.0805,64.2237 31.9985,64.2167 C31.8715,64.1997 31.7845,64.0827 31.8005,63.9217 L31.8015,63.9167 C31.8185,63.7977 31.8765,63.6087 32.4255,63.4977 L32.3665,63.9977 Z" id="Fill-127" fill="#231F20"></path>
                    <path d="M34.4823,64.5961 C34.3133,64.5491 34.2813,64.5251 34.3063,64.2781 L34.3713,63.5921 C34.3893,63.4531 34.4213,63.0411 33.9923,62.9981 C33.7833,62.9771 33.6003,63.0721 33.4603,63.2341 L33.4543,63.2341 L33.5543,62.1901 L33.5443,62.1801 C33.3673,62.2211 33.1893,62.2541 33.0263,62.2851 L33.0233,62.3381 C33.0313,62.3361 33.0663,62.3381 33.0873,62.3411 C33.2443,62.3541 33.2363,62.4281 33.2263,62.5291 L33.0643,64.1521 C33.0393,64.4021 32.9983,64.4251 32.8093,64.4301 L32.8023,64.4801 L33.5593,64.5561 L33.5633,64.5011 C33.3953,64.4671 33.3313,64.4461 33.3563,64.1811 L33.4423,63.3511 C33.6003,63.2011 33.7443,63.1601 33.8473,63.1741 C34.0413,63.1911 34.1013,63.3331 34.0773,63.5631 L34.0123,64.2461 C33.9793,64.5121 33.9183,64.5231 33.7433,64.5231 L33.7363,64.5701 L34.4783,64.6471 L34.4823,64.5961 Z" id="Fill-129" fill="#231F20"></path>
                </g>
                <g id="Group-109" transform="translate(0.000000, 0.857400)">
                    <path d="M86.5108395,37.4468583 L86.5108395,42.0568616 L87.4393022,42.0568616 C88.9865369,42.0568616 89.9149996,41.1911905 89.9149996,39.7573466 C89.9149996,38.0449029 88.8938735,37.4468583 87.2844569,37.4468583 L86.5108395,37.4468583 Z M85.6652862,36.745177 L87.3155479,36.745177 C89.254773,36.745177 90.8123713,37.4261309 90.8123713,39.6439558 C90.8123713,41.7270531 89.3785274,42.7585429 87.3673662,42.7585429 L85.6652862,42.7585429 L85.6652862,36.745177 Z" id="Fill-1" fill="#E8C3A4"></path>
                    <path d="M92.6276592,39.9838841 L94.9381475,39.9838841 C94.8966928,39.2620852 94.5668843,38.7152493 93.8450854,38.7152493 C93.2567948,38.7152493 92.7514136,38.9938491 92.6276592,39.9838841 M91.7821058,40.5203564 C91.7821058,39.1072398 92.5557232,38.0245413 93.8755667,38.0245413 C95.19602,38.0245413 95.8044282,38.9938491 95.8044282,40.2417566 L95.8044282,40.6032657 L92.6069319,40.6032657 C92.6587502,41.6652369 93.1848588,42.1498907 94.0822305,42.1498907 C94.608339,42.1498907 95.2575923,42.0157727 95.6910375,41.7993549 L95.6910375,42.4595815 C95.2783197,42.7070903 94.7217297,42.8412083 93.9682301,42.8412083 C92.5349958,42.8412083 91.7821058,41.964564 91.7821058,40.5203564" id="Fill-3" fill="#E8C3A4"></path>
                    <path d="M97.7955327,42.0467418 C98.0631592,42.1089238 98.4557593,42.1497688 98.7343591,42.1497688 C99.8274212,42.1497688 100.07493,41.3042154 100.07493,40.3659987 C100.07493,39.2619632 99.7341482,38.7151274 98.9507768,38.7151274 C98.5484227,38.7151274 98.1357048,38.9010637 97.7955327,39.0656632 L97.7955327,42.0467418 Z M97.0219153,39.2205086 L96.8262249,38.1170828 L97.6095963,38.1170828 L97.6815323,38.5194369 C98.1253412,38.2512008 98.6514497,38.0244194 99.2086493,38.0244194 C100.312075,38.0244194 100.899756,38.8803364 100.899756,40.221517 C100.899756,41.9748057 99.9511756,42.8410864 98.641086,42.8410864 C98.3423686,42.8410864 98.0326778,42.7898777 97.7955327,42.748423 L97.7955327,44.8937023 L97.0219153,44.8937023 L97.0219153,39.2205086 Z" id="Fill-5" fill="#E8C3A4"></path>
                    <path d="M104.55173,41.6859642 L104.55173,40.7471378 L103.788476,40.7471378 C102.973404,40.7471378 102.57105,40.9538015 102.57105,41.4799101 C102.57105,41.9231093 102.777714,42.1809817 103.231276,42.1809817 C103.664722,42.1809817 104.149376,41.9542003 104.55173,41.6859642 L104.55173,41.6859642 Z M104.623666,42.2535274 C104.293857,42.5113999 103.757385,42.8412083 103.107522,42.8412083 C102.220514,42.8412083 101.787069,42.3047361 101.787069,41.5414825 C101.787069,40.6032657 102.602141,40.1387295 103.943321,40.1387295 L104.55173,40.1387295 L104.55173,39.5717759 C104.55173,38.8700947 104.149376,38.7152493 103.633631,38.7152493 C103.138613,38.7152493 102.436932,38.8700947 102.045551,39.0145764 L102.045551,38.3232588 C102.416204,38.1580497 103.200185,38.0245413 103.767749,38.0245413 C104.613912,38.0245413 105.325347,38.3750771 105.325347,39.3962032 L105.325347,41.7170552 L105.50092,42.7589086 L104.716939,42.7589086 L104.623666,42.2535274 Z" id="Fill-7" fill="#E8C3A4"></path>
                    <path d="M106.800341,39.2206915 L106.60465,38.116656 L107.388022,38.116656 L107.501412,38.7049466 C107.883039,38.3440471 108.398784,38.0246023 108.852347,38.0246023 C109.018166,38.0246023 109.162038,38.0349659 109.327247,38.075811 L109.327247,38.8183373 C109.182765,38.7768826 109.048647,38.7671286 108.914529,38.7671286 C108.347575,38.7671286 107.91413,39.0762097 107.573958,39.3548095 L107.573958,42.7589696 L106.800341,42.7589696 L106.800341,39.2206915 Z" id="Fill-9" fill="#E8C3A4"></path>
                    <path d="M109.740087,38.1168999 L110.513704,38.1168999 L110.513704,36.9000833 L111.286712,36.9000833 L111.286712,38.1168999 L112.833946,38.1168999 L112.833946,38.8082175 L111.286712,38.8082175 L111.286712,41.3869419 C111.297685,42.0160775 111.637857,42.1501955 112.132875,42.1501955 C112.400501,42.1501955 112.710192,42.0672862 112.927219,41.9953502 L112.927219,42.6244858 C112.679101,42.7689675 112.277356,42.8415132 111.843911,42.8415132 C111.132476,42.8415132 110.50334,42.47025 110.513704,41.4796053 L110.513704,38.8082175 L109.740087,38.8082175 L109.740087,38.1168999 Z" id="Fill-11" fill="#E8C3A4"></path>
                    <path d="M119.662628,39.7775862 C119.662628,39.0557872 119.497419,38.7150054 118.785984,38.7150054 C118.38302,38.7150054 117.94043,38.9631238 117.538076,39.2203866 C117.558194,39.3648684 117.568558,39.5197138 117.568558,39.6952865 L117.568558,42.7586648 L116.784577,42.7586648 L116.784577,39.7775862 C116.784577,39.0557872 116.619977,38.7150054 115.907932,38.7150054 C115.515942,38.7150054 115.082496,38.9527602 114.691116,39.2002689 L114.691116,42.7586648 L113.917498,42.7586648 L113.917498,39.2203866 L113.721198,38.1169608 L114.505179,38.1169608 L114.597843,38.6327057 C115.000806,38.3437423 115.547033,38.0242974 116.196286,38.0242974 C116.79494,38.0242974 117.186931,38.2303515 117.392985,38.684524 C117.805703,38.3851969 118.38302,38.0242974 119.074337,38.0242974 C120.0028,38.0242974 120.445999,38.4985877 120.445999,39.6952865 L120.445999,42.7586648 L119.662628,42.7586648 L119.662628,39.7775862 Z" id="Fill-13" fill="#E8C3A4"></path>
                    <path d="M122.44765,39.9838841 L124.758139,39.9838841 C124.717294,39.2620852 124.386876,38.7152493 123.664467,38.7152493 C123.076786,38.7152493 122.571405,38.9938491 122.44765,39.9838841 M121.601487,40.5203564 C121.601487,39.1072398 122.375714,38.0245413 123.695558,38.0245413 C125.016011,38.0245413 125.624419,38.9938491 125.624419,40.2417566 L125.624419,40.6032657 L122.427533,40.6032657 C122.478741,41.6652369 123.00485,42.1498907 123.902222,42.1498907 C124.42833,42.1498907 125.077584,42.0157727 125.511029,41.7993549 L125.511029,42.4595815 C125.098921,42.7070903 124.541721,42.8412083 123.788221,42.8412083 C122.354987,42.8412083 121.601487,41.964564 121.601487,40.5203564" id="Fill-15" fill="#E8C3A4"></path>
                    <path d="M126.841846,39.2206915 L126.646155,38.116656 L127.430136,38.116656 L127.542917,38.6951925 C127.966608,38.3958654 128.626225,38.0246023 129.327297,38.0246023 C130.256369,38.0246023 130.699569,38.4988925 130.699569,39.6949817 L130.699569,42.7589696 L129.915588,42.7589696 L129.915588,39.777891 C129.915588,39.0554824 129.750379,38.7153102 129.038943,38.7153102 C128.606108,38.7153102 128.048298,38.99391 127.615463,39.2621461 L127.615463,42.7589696 L126.841846,42.7589696 L126.841846,39.2206915 Z" id="Fill-17" fill="#E8C3A4"></path>
                    <path d="M131.637907,38.1168999 L132.412134,38.1168999 L132.412134,36.9000833 L133.185142,36.9000833 L133.185142,38.1168999 L134.732377,38.1168999 L134.732377,38.8082175 L133.185142,38.8082175 L133.185142,41.3869419 C133.196115,42.0160775 133.535678,42.1501955 134.031305,42.1501955 C134.298931,42.1501955 134.608622,42.0672862 134.82565,41.9953502 L134.82565,42.6244858 C134.577531,42.7689675 134.175787,42.8415132 133.742341,42.8415132 C133.030296,42.8415132 132.401161,42.47025 132.412134,41.4796053 L132.412134,38.8082175 L131.637907,38.8082175 L131.637907,38.1168999 Z" id="Fill-19" fill="#E8C3A4"></path>
                    <path d="M141.220459,40.4583572 C141.220459,39.5817129 141.05525,38.7154322 139.931097,38.7154322 C138.909971,38.7154322 138.652099,39.5408678 138.652099,40.4272662 C138.652099,41.4075473 138.941062,42.1500736 139.962188,42.1500736 C140.972951,42.1500736 141.220459,41.3764563 141.220459,40.4583572 M137.827273,40.4583572 C137.827273,39.168995 138.724035,38.0241146 139.971942,38.0241146 C141.343604,38.0241146 142.045895,38.7873682 142.045895,40.4376299 C142.045895,41.7062648 141.209486,42.8413912 139.931097,42.8413912 C138.662462,42.8413912 137.827273,42.1189826 137.827273,40.4583572" id="Fill-21" fill="#E8C3A4"></path>
                    <path d="M142.746906,38.1168999 L143.448587,38.1168999 L143.448587,37.694428 C143.448587,36.5288202 144.201477,35.9405296 145.191512,35.9405296 C145.439021,35.9405296 145.645685,35.9612569 145.810284,36.0027116 L145.810284,36.7141469 C145.531684,36.6422109 145.335994,36.6318472 145.057394,36.6318472 C144.520922,36.6318472 144.221595,36.9616557 144.221595,37.7456367 L144.221595,38.1168999 L145.232967,38.1168999 L145.232967,38.8082175 L144.221595,38.8082175 L144.221595,42.7586038 L143.448587,42.7586038 L143.448587,38.8082175 L142.746906,38.8082175 L142.746906,38.1168999 Z" id="Fill-23" fill="#E8C3A4"></path>
                    <path d="M148.151985,41.624087 C148.595794,41.8819594 149.286502,42.0983772 149.915638,42.0983772 C150.606346,42.0983772 151.142818,41.7582051 151.142818,41.1912515 C151.142818,40.5310249 150.461864,40.3243611 149.688856,40.025034 C148.925603,39.7366802 148.11114,39.334326 148.11114,38.3546546 C148.11114,37.2920738 148.997539,36.6525746 150.039392,36.6525746 C150.771555,36.6525746 151.348872,36.8074199 151.751226,37.013474 L151.751226,37.8797548 C151.256818,37.5603099 150.658164,37.3743735 150.039392,37.3743735 C149.482802,37.3743735 148.94633,37.663337 148.94633,38.1583545 C148.94633,38.7259178 149.358438,38.9423355 150.069873,39.231299 C150.947127,39.5921985 151.978008,39.9427343 151.978008,41.1083421 C151.978008,42.2324953 150.998946,42.8415132 149.864429,42.8415132 C149.276138,42.8415132 148.698212,42.7171491 148.151985,42.4903677 L148.151985,41.624087 Z" id="Fill-25" fill="#E8C3A4"></path>
                    <path d="M152.690296,38.1168999 L153.464523,38.1168999 L153.464523,36.9000833 L154.237531,36.9000833 L154.237531,38.1168999 L155.784766,38.1168999 L155.784766,38.8082175 L154.237531,38.8082175 L154.237531,41.3869419 C154.247895,42.0160775 154.588067,42.1501955 155.083694,42.1501955 C155.351321,42.1501955 155.661011,42.0672862 155.878039,41.9953502 L155.878039,42.6244858 C155.62992,42.7689675 155.227566,42.8415132 154.794731,42.8415132 C154.082686,42.8415132 153.45355,42.47025 153.464523,41.4796053 L153.464523,38.8082175 L152.690296,38.8082175 L152.690296,38.1168999 Z" id="Fill-27" fill="#E8C3A4"></path>
                    <path d="M159.291404,41.6859642 L159.291404,40.7471378 L158.52815,40.7471378 C157.713688,40.7471378 157.311334,40.9538015 157.311334,41.4799101 C157.311334,41.9231093 157.517388,42.1809817 157.971561,42.1809817 C158.404396,42.1809817 158.88966,41.9542003 159.291404,41.6859642 L159.291404,41.6859642 Z M159.36395,42.2535274 C159.033532,42.5113999 158.497059,42.8412083 157.847806,42.8412083 C156.960798,42.8412083 156.527353,42.3047361 156.527353,41.5414825 C156.527353,40.6032657 157.342425,40.1387295 158.682996,40.1387295 L159.291404,40.1387295 L159.291404,39.5717759 C159.291404,38.8700947 158.88966,38.7152493 158.373305,38.7152493 C157.878897,38.7152493 157.177216,38.8700947 156.785225,39.0145764 L156.785225,38.3232588 C157.156489,38.1580497 157.94047,38.0245413 158.507423,38.0245413 C159.353586,38.0245413 160.065631,38.3750771 160.065631,39.3962032 L160.065631,41.7170552 L160.240594,42.7589086 L159.456613,42.7589086 L159.36395,42.2535274 Z" id="Fill-29" fill="#E8C3A4"></path>
                    <path d="M161.034512,38.1168999 L161.808739,38.1168999 L161.808739,36.9000833 L162.581747,36.9000833 L162.581747,38.1168999 L164.128981,38.1168999 L164.128981,38.8082175 L162.581747,38.8082175 L162.581747,41.3869419 C162.59211,42.0160775 162.932283,42.1501955 163.42791,42.1501955 C163.695536,42.1501955 164.005227,42.0672862 164.222254,41.9953502 L164.222254,42.6244858 C163.974136,42.7689675 163.571782,42.8415132 163.138946,42.8415132 C162.427511,42.8415132 161.798375,42.47025 161.808739,41.4796053 L161.808739,38.8082175 L161.034512,38.8082175 L161.034512,38.1168999 Z" id="Fill-31" fill="#E8C3A4"></path>
                    <path d="M165.243015,36.3636721 C165.243015,36.0442272 165.490524,35.8064725 165.820332,35.8064725 C166.140386,35.8064725 166.398259,36.0442272 166.398259,36.3636721 C166.398259,36.6831169 166.140386,36.9312353 165.820332,36.9312353 C165.490524,36.9312353 165.243015,36.6831169 165.243015,36.3636721 L165.243015,36.3636721 Z M164.665698,38.1169608 L166.192205,38.1169608 L166.192205,42.7586648 L165.418587,42.7586648 L165.418587,38.8082784 L164.665698,38.8082784 L164.665698,38.1169608 Z" id="Fill-33" fill="#E8C3A4"></path>
                    <path d="M167.450537,42.5316395 L167.450537,41.7787495 C168.090036,42.0262583 168.543599,42.1500127 169.100799,42.1500127 C169.616544,42.1500127 170.059743,41.9025039 170.059743,41.4483314 C170.059743,40.9947685 169.503153,40.8710141 168.894745,40.7161687 C168.1827,40.530842 167.398719,40.2936969 167.398719,39.4170525 C167.398719,38.5190711 168.213791,38.0240536 169.13189,38.0240536 C169.585453,38.0240536 170.183497,38.116717 170.586461,38.3233807 L170.586461,39.0762707 C169.874416,38.7873072 169.534244,38.7153712 169.028863,38.7153712 C168.533235,38.7153712 168.130881,38.9525163 168.130881,39.3036618 C168.130881,39.7669787 168.605781,39.8913427 169.152007,40.0047334 C169.88478,40.1693328 170.75106,40.3759966 170.75106,41.386759 C170.75106,42.4389761 169.853689,42.8413303 168.956927,42.8413303 C168.337545,42.8413303 167.842527,42.6968485 167.450537,42.5316395" id="Fill-35" fill="#E8C3A4"></path>
                    <path d="M171.432136,38.1168999 L172.205754,38.1168999 L172.205754,36.9000833 L172.979371,36.9000833 L172.979371,38.1168999 L174.526606,38.1168999 L174.526606,38.8082175 L172.979371,38.8082175 L172.979371,41.3869419 C172.989735,42.0160775 173.329907,42.1501955 173.825534,42.1501955 C174.09316,42.1501955 174.402851,42.0672862 174.619269,41.9953502 L174.619269,42.6244858 C174.37176,42.7689675 173.969406,42.8415132 173.535961,42.8415132 C172.824526,42.8415132 172.19539,42.47025 172.205754,41.4796053 L172.205754,38.8082175 L171.432136,38.8082175 L171.432136,38.1168999 Z" id="Fill-37" fill="#E8C3A4"></path>
                    <path d="M175.640029,36.3636721 C175.640029,36.0442272 175.888148,35.8064725 176.217956,35.8064725 C176.538011,35.8064725 176.795883,36.0442272 176.795883,36.3636721 C176.795883,36.6831169 176.538011,36.9312353 176.217956,36.9312353 C175.888148,36.9312353 175.640029,36.6831169 175.640029,36.3636721 L175.640029,36.3636721 Z M175.062712,38.1169608 L176.589219,38.1169608 L176.589219,42.7586648 L175.815602,42.7586648 L175.815602,38.8082784 L175.062712,38.8082784 L175.062712,38.1169608 Z" id="Fill-39" fill="#E8C3A4"></path>
                    <path d="M177.785613,40.5101756 C177.785613,39.097059 178.590322,38.0241146 180.034529,38.0241146 C180.478338,38.0241146 180.942265,38.0759329 181.2928,38.2612597 L181.2928,39.0866953 C180.848992,38.7977319 180.42652,38.7154322 180.004048,38.7154322 C179.271885,38.7154322 178.611049,39.0763317 178.611049,40.4479936 C178.611049,41.6136014 179.178003,42.1500736 180.116829,42.1500736 C180.478338,42.1500736 180.90081,42.0574102 181.2928,41.8611102 L181.2928,42.5213368 C180.931901,42.7377546 180.467365,42.8413912 179.931502,42.8413912 C178.497658,42.8413912 177.785613,41.9543832 177.785613,40.5101756" id="Fill-41" fill="#E8C3A4"></path>
                    <path d="M182.272655,42.5316395 L182.272655,41.7787495 C182.912154,42.0262583 183.366327,42.1500127 183.922916,42.1500127 C184.439271,42.1500127 184.88247,41.9025039 184.88247,41.4483314 C184.88247,40.9947685 184.325271,40.8710141 183.716862,40.7161687 C183.004817,40.530842 182.220836,40.2936969 182.220836,39.4170525 C182.220836,38.5190711 183.035908,38.0240536 183.954007,38.0240536 C184.40818,38.0240536 185.005615,38.116717 185.408579,38.3233807 L185.408579,39.0762707 C184.697143,38.7873072 184.356362,38.7153712 183.85098,38.7153712 C183.355353,38.7153712 182.952999,38.9525163 182.952999,39.3036618 C182.952999,39.7669787 183.427899,39.8913427 183.974735,40.0047334 C184.706897,40.1693328 185.573178,40.3759966 185.573178,41.386759 C185.573178,42.4389761 184.675806,42.8413303 183.779044,42.8413303 C183.159663,42.8413303 182.664645,42.6968485 182.272655,42.5316395" id="Fill-43" fill="#E8C3A4"></path>
                    <path d="M190.843774,39.3754759 C191.504001,39.0560311 191.958173,38.6951316 191.958173,38.1793867 C191.958173,37.6941232 191.648482,37.3435874 191.091892,37.3435874 C190.462757,37.3435874 190.142702,37.6630322 190.142702,38.2305954 C190.142702,38.6018586 190.431666,38.9834854 190.843774,39.3754759 M190.307911,39.9735205 C189.864712,40.2624839 189.626957,40.6959291 189.626957,41.0361013 C189.626957,41.6134185 190.060403,42.129773 190.937047,42.129773 C191.504001,42.129773 191.989264,41.9438366 192.391009,41.6341459 C191.968537,41.3250647 191.545455,41.0050102 191.143101,40.6752018 C190.843774,40.4380567 190.565784,40.2112752 190.307911,39.9735205 M193.587707,41.4799101 C194.185752,41.902382 194.742952,42.2632815 195.206878,42.5418812 L195.206878,42.7589086 L194.12418,42.7589086 C193.794371,42.5833359 193.412135,42.3358271 193.000026,42.0572274 C192.4221,42.5315176 191.700301,42.8412083 190.823656,42.8412083 C189.60623,42.8412083 188.801522,42.1602544 188.801522,41.2220376 C188.801522,40.427693 189.245331,39.9015844 189.874466,39.5303213 C189.52393,39.1279671 189.306903,38.7256129 189.306903,38.3025314 C189.306903,37.4874594 189.967739,36.6522697 191.153465,36.6522697 C192.278227,36.6522697 192.81409,37.4362507 192.81409,38.1275683 C192.81409,38.9011857 192.113018,39.4480216 191.329037,39.7979478 C191.545455,39.9735205 191.772237,40.1490932 191.999628,40.3143023 L192.989663,41.0568286 C193.443226,40.489875 193.752307,39.77783 193.938243,39.0968761 L194.825251,39.0968761 C194.59847,39.8601298 194.196116,40.7471378 193.587707,41.4799101" id="Fill-45" fill="#E8C3A4"></path>
                    <path d="M88.001013,51.822241 C88.001013,50.120161 89.0117755,48.686317 90.971728,48.686317 C92.0135814,48.686317 92.4360533,48.9027348 92.7561077,49.0270988 L92.7561077,49.8622885 C92.1269721,49.4910254 91.5904999,49.3879983 90.9199096,49.3879983 C89.7134568,49.3879983 88.8983848,50.223188 88.8983848,51.6673956 C88.8983848,53.3383847 89.7439381,54.1632107 91.0954823,54.1632107 C91.7453453,54.1632107 92.2403628,54.04982 92.7561077,53.7407388 L92.7561077,54.4832651 C92.4775079,54.6685919 91.8069177,54.8752556 90.9918457,54.8752556 C89.0221391,54.8752556 88.001013,53.7200115 88.001013,51.822241" id="Fill-47" fill="#E8C3A4"></path>
                    <path d="M97.0569689,52.4928922 C97.0569689,51.6162479 96.8917599,50.7493575 95.7676067,50.7493575 C94.7464806,50.7493575 94.4886082,51.5747932 94.4886082,52.4618012 C94.4886082,53.4414727 94.7775716,54.183999 95.7986977,54.183999 C96.8094602,54.183999 97.0569689,53.4103817 97.0569689,52.4928922 M93.6637821,52.4928922 C93.6637821,51.20353 94.5611539,50.0586495 95.8090614,50.0586495 C97.1807233,50.0586495 97.8824046,50.8212936 97.8824046,52.4721649 C97.8824046,53.7407998 97.0466053,54.8753166 95.7676067,54.8753166 C94.4989718,54.8753166 93.6637821,54.152908 93.6637821,52.4928922" id="Fill-49" fill="#E8C3A4"></path>
                    <path d="M104.844656,51.8118164 C104.844656,51.0900174 104.679447,50.7492356 103.968011,50.7492356 C103.565657,50.7492356 103.122458,50.9967444 102.720104,51.2546168 C102.740222,51.3997082 102.750585,51.5539439 102.750585,51.7295167 L102.750585,54.792895 L101.966604,54.792895 L101.966604,51.8118164 C101.966604,51.0900174 101.802005,50.7492356 101.08996,50.7492356 C100.697969,50.7492356 100.264524,50.9863807 99.8731433,51.2344991 L99.8731433,54.792895 L99.0995259,54.792895 L99.0995259,51.2546168 L98.9038355,50.151191 L99.6872069,50.151191 L99.7798703,50.6669359 C100.182834,50.3779724 100.72906,50.0585276 101.378923,50.0585276 C101.977577,50.0585276 102.368958,50.2645817 102.575012,50.7187542 C102.98773,50.4194271 103.565657,50.0585276 104.256975,50.0585276 C105.185437,50.0585276 105.628637,50.5328178 105.628637,51.7295167 L105.628637,54.792895 L104.844656,54.792895 L104.844656,51.8118164 Z" id="Fill-51" fill="#E8C3A4"></path>
                    <path d="M112.818035,51.8118164 C112.818035,51.0900174 112.652826,50.7492356 111.941391,50.7492356 C111.539036,50.7492356 111.095837,50.9967444 110.693483,51.2546168 C110.71421,51.3997082 110.723964,51.5539439 110.723964,51.7295167 L110.723964,54.792895 L109.939984,54.792895 L109.939984,51.8118164 C109.939984,51.0900174 109.775384,50.7492356 109.063339,50.7492356 C108.671349,50.7492356 108.237903,50.9863807 107.846523,51.2344991 L107.846523,54.792895 L107.072905,54.792895 L107.072905,51.2546168 L106.877215,50.151191 L107.660586,50.151191 L107.75325,50.6669359 C108.156213,50.3779724 108.70244,50.0585276 109.352303,50.0585276 C109.950957,50.0585276 110.342338,50.2645817 110.548392,50.7187542 C110.96111,50.4194271 111.539036,50.0585276 112.230354,50.0585276 C113.158817,50.0585276 113.602016,50.5328178 113.602016,51.7295167 L113.602016,54.792895 L112.818035,54.792895 L112.818035,51.8118164 Z" id="Fill-53" fill="#E8C3A4"></path>
                    <path d="M118.738677,53.6686808 L118.934367,54.792834 L118.150996,54.792834 L118.037605,54.2149071 C117.635251,54.5142342 117.04757,54.8751337 116.356252,54.8751337 C115.427789,54.8751337 114.98459,54.4008435 114.98459,53.2041447 L114.98459,50.15113 L115.768571,50.15113 L115.768571,53.121845 C115.768571,53.8442536 115.933171,54.1844257 116.644606,54.1844257 C117.068297,54.1844257 117.542587,53.9058259 117.965059,53.6375898 L117.965059,50.15113 L118.738677,50.15113 L118.738677,53.6686808 Z" id="Fill-55" fill="#E8C3A4"></path>
                    <path d="M120.255003,51.2548607 L120.059313,50.1508252 L120.843294,50.1508252 L120.956075,50.7287521 C121.379766,50.429425 122.039992,50.0587715 122.740455,50.0587715 C123.669527,50.0587715 124.112726,50.5324521 124.112726,51.7297605 L124.112726,54.7925292 L123.328745,54.7925292 L123.328745,51.8120602 C123.328745,51.0896516 123.163536,50.7494795 122.452101,50.7494795 C122.019265,50.7494795 121.461456,51.0274696 121.02923,51.2957057 L121.02923,54.7925292 L120.255003,54.7925292 L120.255003,51.2548607 Z" id="Fill-57" fill="#E8C3A4"></path>
                    <path d="M125.588025,48.3975365 C125.588025,48.0780916 125.835533,47.8403369 126.165342,47.8403369 C126.485396,47.8403369 126.743269,48.0780916 126.743269,48.3975365 C126.743269,48.7169813 126.485396,48.9650997 126.165342,48.9650997 C125.835533,48.9650997 125.588025,48.7169813 125.588025,48.3975365 L125.588025,48.3975365 Z M125.010707,50.1508252 L126.537215,50.1508252 L126.537215,54.7925292 L125.762988,54.7925292 L125.762988,50.8421428 L125.010707,50.8421428 L125.010707,50.1508252 Z" id="Fill-59" fill="#E8C3A4"></path>
                    <path d="M127.516337,50.15113 L128.290564,50.15113 L128.290564,48.9343135 L129.063572,48.9343135 L129.063572,50.15113 L130.610807,50.15113 L130.610807,50.841838 L129.063572,50.841838 L129.063572,53.4205624 C129.074545,54.0503077 129.414108,54.1844257 129.909735,54.1844257 C130.177362,54.1844257 130.487052,54.1015164 130.70408,54.0295803 L130.70408,54.6587159 C130.455961,54.8031977 130.054217,54.8757433 129.620772,54.8757433 C128.909336,54.8757433 128.280201,54.5038705 128.290564,53.5138355 L128.290564,50.841838 L127.516337,50.841838 L127.516337,50.15113 Z" id="Fill-61" fill="#E8C3A4"></path>
                    <polygon id="Fill-63" fill="#E8C3A4" points="132.106406 56.9278715 132.075315 56.8967805 132.962933 54.7929559 132.838569 54.7929559 131.188307 50.151252 132.096042 50.151252 132.962933 52.8848218 133.282377 53.8949746 133.344559 53.8949746 133.715823 52.8433671 134.654649 50.151252 135.510566 50.151252 133.746304 54.6685919 132.931842 56.9278715"></polygon>
                    <path d="M139.441018,49.4807836 L139.441018,54.0913966 L140.368871,54.0913966 C141.916105,54.0913966 142.844568,53.2251159 142.844568,51.7912719 C142.844568,50.0788282 141.823442,49.4807836 140.214635,49.4807836 L139.441018,49.4807836 Z M138.594855,48.779712 L140.245116,48.779712 C142.184341,48.779712 143.74194,49.4600563 143.74194,51.6778812 C143.74194,53.7609784 142.308096,54.7924682 140.296325,54.7924682 L138.594855,54.7924682 L138.594855,48.779712 Z" id="Fill-65" fill="#E8C3A4"></path>
                    <path d="M145.557532,52.0184191 L147.868021,52.0184191 C147.826566,51.2960105 147.496758,50.7491746 146.774349,50.7491746 C146.186058,50.7491746 145.680677,51.0277744 145.557532,52.0184191 M144.711369,52.5542817 C144.711369,51.1411651 145.484987,50.0584667 146.80544,50.0584667 C148.125284,50.0584667 148.734301,51.0277744 148.734301,52.2762916 L148.734301,52.6371911 L145.536805,52.6371911 C145.588623,53.6997718 146.114122,54.1844257 147.012104,54.1844257 C147.537603,54.1844257 148.187466,54.0503077 148.620301,53.8338899 L148.620301,54.4935069 C148.208193,54.7410157 147.650993,54.8757433 146.898103,54.8757433 C145.464869,54.8757433 144.711369,53.999099 144.711369,52.5542817" id="Fill-67" fill="#E8C3A4"></path>
                    <polygon id="Fill-69" fill="#E8C3A4" points="149.32186 50.15113 150.230205 50.15113 151.065395 52.7920365 151.416541 53.8954623 151.478113 53.8954623 151.870104 52.7713091 152.788203 50.15113 153.64412 50.15113 151.828649 54.792834 150.972732 54.792834"></polygon>
                    <path d="M154.9853,52.0184191 L157.295788,52.0184191 C157.254334,51.2960105 156.924525,50.7491746 156.202117,50.7491746 C155.614436,50.7491746 155.109055,51.0277744 154.9853,52.0184191 M154.139137,52.5542817 C154.139137,51.1411651 154.913364,50.0584667 156.233208,50.0584667 C157.553661,50.0584667 158.162069,51.0277744 158.162069,52.2762916 L158.162069,52.6371911 L154.964573,52.6371911 C155.016391,53.6997718 155.5425,54.1844257 156.439871,54.1844257 C156.96537,54.1844257 157.615233,54.0503077 158.048069,53.8338899 L158.048069,54.4935069 C157.63657,54.7410157 157.079371,54.8757433 156.325871,54.8757433 C154.892637,54.8757433 154.139137,53.999099 154.139137,52.5542817" id="Fill-71" fill="#E8C3A4"></path>
                    <mask id="mask-2" fill="white">
                        <use xlink:href="#path-1"></use>
                    </mask>
                    <g id="Clip-74"></g>
                    <polygon id="Fill-73" fill="#E8C3A4" mask="url(#mask-2)" points="159.410282 54.7927121 160.183899 54.7927121 160.183899 48.0575472 159.410282 48.0575472"></polygon>
                    <path d="M164.814934,52.4928922 C164.814934,51.6162479 164.649725,50.7493575 163.525572,50.7493575 C162.504446,50.7493575 162.246574,51.5747932 162.246574,52.4618012 C162.246574,53.4414727 162.535537,54.183999 163.557273,54.183999 C164.567426,54.183999 164.814934,53.4103817 164.814934,52.4928922 M161.421748,52.4928922 C161.421748,51.20353 162.31851,50.0586495 163.567027,50.0586495 C164.938689,50.0586495 165.64037,50.8212936 165.64037,52.4721649 C165.64037,53.7407998 164.804571,54.8753166 163.525572,54.8753166 C162.256937,54.8753166 161.421748,54.152908 161.421748,52.4928922" id="Fill-75" fill="#E8C3A4" mask="url(#mask-2)"></path>
                    <path d="M167.630926,54.0809719 C167.899162,54.1431539 168.291152,54.183999 168.569752,54.183999 C169.663424,54.183999 169.910323,53.3384456 169.910323,52.3996192 C169.910323,51.2961934 169.570151,50.7493575 168.78678,50.7493575 C168.383816,50.7493575 167.971708,50.9352939 167.630926,51.0998934 L167.630926,54.0809719 Z M166.857308,51.2547387 L166.661618,50.1513129 L167.444989,50.1513129 L167.517535,50.5530575 C167.961344,50.285431 168.486843,50.0586495 169.044042,50.0586495 C170.147468,50.0586495 170.735759,50.9145666 170.735759,52.2551375 C170.735759,54.0084263 169.786569,54.8753166 168.477089,54.8753166 C168.177152,54.8753166 167.868681,54.8234983 167.630926,54.7820436 L167.630926,56.9279325 L166.857308,56.9279325 L166.857308,51.2547387 Z" id="Fill-76" fill="#E8C3A4" mask="url(#mask-2)"></path>
                    <path d="M177.7088,51.8118164 C177.7088,51.0900174 177.543591,50.7492356 176.831546,50.7492356 C176.429192,50.7492356 175.985993,50.9967444 175.583639,51.2546168 C175.604366,51.3997082 175.61412,51.5539439 175.61412,51.7295167 L175.61412,54.792895 L174.830749,54.792895 L174.830749,51.8118164 C174.830749,51.0900174 174.666149,50.7492356 173.954104,50.7492356 C173.562114,50.7492356 173.128669,50.9863807 172.736678,51.2344991 L172.736678,54.792895 L171.963061,54.792895 L171.963061,51.2546168 L171.76737,50.151191 L172.551351,50.151191 L172.644015,50.6669359 C173.046369,50.3779724 173.593205,50.0585276 174.242458,50.0585276 C174.841112,50.0585276 175.232493,50.2645817 175.439157,50.7187542 C175.851875,50.4194271 176.429192,50.0585276 177.12051,50.0585276 C178.048972,50.0585276 178.492172,50.5328178 178.492172,51.7295167 L178.492172,54.792895 L177.7088,54.792895 L177.7088,51.8118164 Z" id="Fill-77" fill="#E8C3A4" mask="url(#mask-2)"></path>
                    <path d="M180.493823,52.0184191 L182.804311,52.0184191 C182.762856,51.2960105 182.433048,50.7491746 181.710639,50.7491746 C181.122349,50.7491746 180.617577,51.0277744 180.493823,52.0184191 M179.64766,52.5542817 C179.64766,51.1411651 180.421277,50.0584667 181.74173,50.0584667 C183.061574,50.0584667 183.670592,51.0277744 183.670592,52.2762916 L183.670592,52.6371911 L180.473095,52.6371911 C180.524914,53.6997718 181.050413,54.1844257 181.948394,54.1844257 C182.473893,54.1844257 183.123756,54.0503077 183.556591,53.8338899 L183.556591,54.4935069 C183.144483,54.7410157 182.587893,54.8757433 181.834394,54.8757433 C180.401159,54.8757433 179.64766,53.999099 179.64766,52.5542817" id="Fill-78" fill="#E8C3A4" mask="url(#mask-2)"></path>
                    <path d="M184.887408,51.2548607 L184.692327,50.1508252 L185.475699,50.1508252 L185.589089,50.7287521 C186.012171,50.429425 186.672398,50.0587715 187.373469,50.0587715 C188.301932,50.0587715 188.745131,50.5324521 188.745131,51.7297605 L188.745131,54.7925292 L187.96115,54.7925292 L187.96115,51.8120602 C187.96115,51.0896516 187.795941,50.7494795 187.084506,50.7494795 C186.65167,50.7494795 186.093861,51.0274696 185.661635,51.2957057 L185.661635,54.7925292 L184.887408,54.7925292 L184.887408,51.2548607 Z" id="Fill-79" fill="#E8C3A4" mask="url(#mask-2)"></path>
                    <path d="M189.684079,50.15113 L190.458306,50.15113 L190.458306,48.9343135 L191.231314,48.9343135 L191.231314,50.15113 L192.778549,50.15113 L192.778549,50.841838 L191.231314,50.841838 L191.231314,53.4205624 C191.242287,54.0503077 191.58185,54.1844257 192.077477,54.1844257 C192.345104,54.1844257 192.654794,54.1015164 192.871822,54.0295803 L192.871822,54.6587159 C192.623703,54.8031977 192.221349,54.8757433 191.788514,54.8757433 C191.076469,54.8757433 190.447333,54.5038705 190.458306,53.5138355 L190.458306,50.841838 L189.684079,50.841838 L189.684079,50.15113 Z" id="Fill-80" fill="#E8C3A4" mask="url(#mask-2)"></path>
                    <path d="M86.5626579,24.3003017 C86.768712,24.0113383 87.0887664,23.7534658 87.0887664,23.7534658 C87.0887664,23.7534658 87.3466389,23.9698836 87.5533026,24.218002 C87.7587471,23.9698836 88.0166195,23.7534658 88.0166195,23.7534658 C88.0166195,23.7534658 88.3263103,24.0113383 88.5433377,24.3003017 C88.3263103,24.5789015 88.0166195,24.8367739 88.0166195,24.8367739 C88.0166195,24.8367739 87.7587471,24.6203561 87.5533026,24.3826014 C87.3466389,24.6203561 87.0887664,24.8367739 87.0887664,24.8367739 C87.0887664,24.8367739 86.768712,24.5789015 86.5626579,24.3003017 L86.5626579,24.3003017 Z M87.8928651,28.1068159 L87.8721378,27.9001522 C87.8520201,27.6526434 87.8416564,27.1058076 87.8416564,26.579699 C86.8205303,27.0850802 86.118849,27.6831248 86.118849,27.9105159 C86.118849,28.0751153 86.5108395,28.2610517 87.0369481,28.2610517 C87.4185749,28.2610517 87.7069287,28.178752 87.8928651,28.1068159 L87.8928651,28.1068159 Z M89.8735449,28.9834603 L89.8735449,29.746714 L89.7083359,29.7771954 C88.7493918,29.7771954 88.2952193,29.3852049 88.0684379,28.8487326 C87.9032288,28.9212783 87.5118479,29.0755141 86.933921,29.0755141 C86.4907218,29.0755141 86.056667,28.9523693 85.7890405,28.6219512 C85.5622591,28.3433514 85.4793498,27.8379702 85.6652862,27.4874344 C86.046913,26.7650258 87.0369481,26.2187995 87.8416564,25.8164453 L87.8416564,25.2391281 L88.5634554,25.1873097 L88.5634554,27.8172429 C88.5634554,28.4671058 88.7493918,28.9523693 89.7083359,28.9523693 L89.8735449,28.9834603 Z" id="Fill-81" fill="#E8C3A4" mask="url(#mask-2)"></path>
                    <path d="M92.1120972,30.8192317 C91.9054335,31.0868582 91.606716,31.3246129 91.606716,31.3246129 C91.606716,31.3246129 91.3585976,31.1283128 91.1629072,30.8911677 C90.9672167,31.1283128 90.729462,31.3246129 90.729462,31.3246129 C90.729462,31.3246129 90.4307445,31.0868582 90.2344444,30.8192317 C90.4307445,30.5406319 90.729462,30.3034868 90.729462,30.3034868 C90.729462,30.3034868 90.9672167,30.4991772 91.1629072,30.746686 C91.3585976,30.4991772 91.606716,30.3034868 91.606716,30.3034868 C91.606716,30.3034868 91.9054335,30.5406319 92.1120972,30.8192317 L92.1120972,30.8192317 Z M93.0710413,28.9830336 L93.0710413,29.7462872 L92.9058322,29.7773782 C92.3077876,29.7773782 91.5859887,29.7048326 91.1732708,29.271997 C91.1421798,29.303088 91.1110888,29.3439331 91.0702438,29.3750241 C90.8330987,29.5914419 90.4307445,29.7773782 89.7083359,29.7773782 L89.5437365,29.7462872 L89.5437365,28.9830336 L89.7083359,28.9519426 C90.6471623,28.9519426 90.8739437,28.6843161 90.9056443,28.519107 C90.9361257,28.322807 91.0909711,26.9407814 91.0909711,26.9407814 L91.7713154,26.9407814 L91.5963523,28.6428614 C91.8438611,28.8489155 92.390697,28.9519426 92.9058322,28.9519426 L93.0710413,28.9830336 Z" id="Fill-82" fill="#E8C3A4" mask="url(#mask-2)"></path>
                    <path d="M95.2888662,28.1166919 C95.4126206,28.2404463 95.5260113,28.353837 95.6290384,28.4465004 C96.320356,28.0752372 96.8879192,27.5082836 97.1348184,27.0852021 C96.7117369,26.9718114 96.1344196,26.8895117 95.6186747,26.8895117 C95.0517211,26.8895117 94.5774309,26.9510841 94.2061677,27.0443571 C94.5359762,27.3534383 94.9383304,27.7661561 95.2888662,28.1166919 L95.2888662,28.1166919 Z M98.4656352,28.9829726 L98.4656352,29.7462263 L98.3004262,29.7773173 L97.6712906,29.7773173 C96.5062924,29.7773173 95.9899379,29.6431992 95.505284,29.2615724 C94.8249397,29.5712632 94.0409587,29.7773173 93.143587,29.7773173 L92.8960782,29.7773173 L92.7412328,29.7462263 L92.7412328,28.9829726 L92.8960782,28.9524912 L93.1228596,28.9524912 C93.896477,28.9524912 94.4634306,28.8695819 94.9486941,28.7257098 C94.5152489,28.2715373 93.9580493,27.6527654 93.4429141,27.2290742 L93.4429141,26.5176389 C93.7623589,26.3634032 94.9279667,26.1360121 95.7430387,26.1360121 C96.5885921,26.1360121 97.4134181,26.3219485 97.7535903,26.5487299 C97.7535903,26.785875 97.7432266,27.1059295 97.6920179,27.2400475 C97.5578999,27.5491287 97.0939733,28.25081 96.2685377,28.8391005 C96.5885921,28.9421276 97.011064,28.9524912 97.7749273,28.9524912 L98.3004262,28.9524912 L98.4656352,28.9829726 Z" id="Fill-83" fill="#E8C3A4" mask="url(#mask-2)"></path>
                    <path d="M102.014399,28.7046167 L101.941853,28.5808623 C101.601681,27.9620904 101.322472,27.3122274 100.848791,27.3122274 C100.312319,27.3122274 99.9306921,28.0340264 99.9306921,28.4467443 C99.9306921,28.6838894 100.095901,29.0039438 100.889636,29.0039438 C101.354172,29.0039438 101.756527,28.8594621 102.014399,28.7046167 L102.014399,28.7046167 Z M103.767688,28.9832165 L103.767688,29.7464701 L103.601869,29.7775611 L103.509815,29.7775611 C103.045279,29.7775611 102.736198,29.6531971 102.436871,29.3337523 C102.303362,29.447143 101.797372,29.8287698 100.9,29.8287698 C100.34341,29.8287698 99.8581464,29.6842881 99.5899103,29.2922976 C99.3424015,29.5708974 98.9089564,29.7775611 98.3005481,29.7775611 L98.1359487,29.7464701 L98.1359487,28.9832165 L98.3005481,28.9521255 C98.7443569,28.9521255 99.2082835,28.8180074 99.3734925,28.560135 L99.3734925,28.4881989 C99.3734925,27.5597362 100.116019,26.4867918 100.972546,26.4867918 C101.57059,26.4867918 101.890645,26.9306006 102.354571,27.8279723 C102.808744,28.694253 102.911771,28.9521255 103.601869,28.9521255 L103.767688,28.9832165 Z" id="Fill-84" fill="#E8C3A4" mask="url(#mask-2)"></path>
                    <path d="M104.314158,25.7546901 C104.520212,25.4657266 104.840266,25.2084638 104.840266,25.2084638 C104.840266,25.2084638 105.097529,25.424272 105.304193,25.6723904 C105.510857,25.424272 105.768729,25.2084638 105.768729,25.2084638 C105.768729,25.2084638 106.07842,25.4657266 106.294838,25.7546901 C106.07842,26.0332899 105.768729,26.2911623 105.768729,26.2911623 C105.768729,26.2911623 105.510857,26.0741349 105.304193,25.8369898 C105.097529,26.0741349 104.840266,26.2911623 104.840266,26.2911623 C104.840266,26.2911623 104.520212,26.0332899 104.314158,25.7546901 L104.314158,25.7546901 Z M129.450929,28.9521864 L129.450929,29.7776221 L106.799609,29.7776221 C106.201565,29.7776221 105.479766,29.7050764 105.067048,29.2722409 C105.036566,29.3027223 105.005475,29.3441769 104.963411,29.3746583 C104.726876,29.5916857 104.325131,29.7776221 103.602113,29.7776221 L103.438123,29.7465311 L103.438123,28.9832774 L103.602113,28.9521864 C104.540939,28.9521864 104.767721,28.6839503 104.799421,28.5187413 C104.829903,28.3230508 104.984748,26.9404156 104.984748,26.9404156 L105.665702,26.9404156 L105.490129,28.6424957 C105.737638,28.8491594 106.283864,28.9521864 106.799609,28.9521864 L129.450929,28.9521864 Z" id="Fill-85" fill="#E8C3A4" mask="url(#mask-2)"></path>
                    <path d="M134.071601,30.0351897 C133.834456,30.3345168 133.504038,30.5923893 133.504038,30.5923893 C133.504038,30.5923893 133.17423,30.3345168 132.957812,30.0351897 C133.17423,29.7254989 133.504038,29.4676265 133.504038,29.4676265 C133.504038,29.4676265 133.834456,29.7254989 134.071601,30.0351897 L134.071601,30.0351897 Z M136.392453,28.9829726 L136.392453,29.7462263 L136.227244,29.7773173 L136.186399,29.7773173 C134.938492,29.7773173 134.536137,29.044545 134.412383,28.1679006 C133.855793,28.3434734 133.112657,28.6946188 132.596912,28.9933363 C131.647722,29.5401722 130.688778,29.7773173 129.637171,29.7773173 L129.451234,29.7773173 L129.285416,29.7462263 L129.285416,28.9829726 L129.451234,28.9524912 L129.615834,28.9524912 C130.708896,28.9524912 131.658086,28.7354638 132.410976,28.353837 C132.596912,28.2611736 132.978539,28.0856009 133.37053,27.9210015 C133.17423,27.8588195 132.978539,27.7765198 132.751758,27.663129 C132.122622,27.3534383 131.575786,27.0644748 131.101496,27.0644748 C130.55466,27.0644748 130.059643,27.3430746 130.059643,27.3430746 L130.059643,26.6316393 C130.059643,26.6316393 130.492478,26.2908575 131.173432,26.2908575 C131.761723,26.2908575 132.359158,26.6316393 132.957812,26.9199931 C133.669857,27.2705289 134.267292,27.3327109 135.051273,27.3327109 L135.4329,27.3327109 L135.360963,28.0959646 L135.196364,28.0959646 L134.959219,28.0959646 C135.041519,28.4775914 135.237209,28.9524912 136.186399,28.9524912 L136.227244,28.9524912 L136.392453,28.9829726 Z" id="Fill-86" fill="#E8C3A4" mask="url(#mask-2)"></path>
                    <path d="M138.846265,29.5398674 L138.392702,30.3134847 C137.340485,29.7776221 137.144185,29.7776221 136.246813,29.7776221 L136.118182,29.7776221 L135.994427,29.7465311 L135.994427,28.9832774 L136.118182,28.9521864 L136.143786,28.9521864 C136.62844,28.9521864 136.98934,28.9625501 137.267939,29.0143684 C137.10334,28.7558864 136.98934,28.4468052 136.98934,28.01336 L136.98934,22.7839752 L137.711748,22.7016754 L137.711748,28.1169967 C137.711748,28.7150413 138.846265,29.5398674 138.846265,29.5398674" id="Fill-87" fill="#E8C3A4" mask="url(#mask-2)"></path>
                    <polygon id="Fill-88" fill="#E8C3A4" mask="url(#mask-2)" points="139.475523 22.7533109 140.197321 22.7014926 140.197321 29.7774392 139.475523 29.7774392"></polygon>
                    <path d="M144.807995,24.3003017 C145.01405,24.0113383 145.333494,23.7534658 145.333494,23.7534658 C145.333494,23.7534658 145.591367,23.9698836 145.798031,24.218002 C146.004085,23.9698836 146.262567,23.7534658 146.262567,23.7534658 C146.262567,23.7534658 146.571648,24.0113383 146.788066,24.3003017 C146.571648,24.5789015 146.262567,24.8367739 146.262567,24.8367739 C146.262567,24.8367739 146.004085,24.6203561 145.798031,24.3826014 C145.591367,24.6203561 145.333494,24.8367739 145.333494,24.8367739 C145.333494,24.8367739 145.01405,24.5789015 144.807995,24.3003017 L144.807995,24.3003017 Z M146.138812,28.1068159 L146.117475,27.9001522 C146.096748,27.6526434 146.086994,27.1058076 146.086994,26.579699 C145.065868,27.0850802 144.364187,27.6831248 144.364187,27.9105159 C144.364187,28.0751153 144.756177,28.2610517 145.282286,28.2610517 C145.663912,28.2610517 145.952876,28.178752 146.138812,28.1068159 L146.138812,28.1068159 Z M148.118882,28.9834603 L148.118882,29.746714 L147.953673,29.7771954 C146.994729,29.7771954 146.540557,29.3852049 146.313775,28.8487326 C146.148566,28.9212783 145.757185,29.0755141 145.178649,29.0755141 C144.736059,29.0755141 144.302614,28.9523693 144.034378,28.6219512 C143.806987,28.3433514 143.724687,27.8379702 143.910014,27.4874344 C144.292251,26.7650258 145.282286,26.2187995 146.086994,25.8164453 L146.086994,25.2391281 L146.808793,25.1873097 L146.808793,27.8172429 C146.808793,28.4671058 146.994729,28.9523693 147.953673,28.9523693 L148.118882,28.9834603 Z" id="Fill-89" fill="#E8C3A4" mask="url(#mask-2)"></path>
                    <path d="M150.35713,30.8192317 C150.150466,31.0868582 149.851749,31.3246129 149.851749,31.3246129 C149.851749,31.3246129 149.60424,31.1283128 149.40794,30.8911677 C149.212249,31.1283128 148.974495,31.3246129 148.974495,31.3246129 C148.974495,31.3246129 148.675777,31.0868582 148.480087,30.8192317 C148.675777,30.5406319 148.974495,30.3034868 148.974495,30.3034868 C148.974495,30.3034868 149.212249,30.4991772 149.40794,30.746686 C149.60424,30.4991772 149.851749,30.3034868 149.851749,30.3034868 C149.851749,30.3034868 150.150466,30.5406319 150.35713,30.8192317 L150.35713,30.8192317 Z M151.316684,28.9830336 L151.316684,29.7462872 L151.151475,29.7773782 C150.55282,29.7773782 149.831021,29.7048326 149.418304,29.271997 C149.387213,29.303088 149.356122,29.3439331 149.315276,29.3750241 C149.078131,29.5914419 148.675777,29.7773782 147.953978,29.7773782 L147.788769,29.7462872 L147.788769,28.9830336 L147.953978,28.9519426 C148.892805,28.9519426 149.119586,28.6843161 149.150677,28.519107 C149.181158,28.322807 149.336004,26.9407814 149.336004,26.9407814 L150.016348,26.9407814 L149.841385,28.6428614 C150.089503,28.8489155 150.63573,28.9519426 151.151475,28.9519426 L151.316684,28.9830336 Z" id="Fill-90" fill="#E8C3A4" mask="url(#mask-2)"></path>
                    <path d="M154.864472,28.7046167 L154.792536,28.5808623 C154.451754,27.9620904 154.173764,27.3122274 153.699474,27.3122274 C153.162392,27.3122274 152.781375,28.0340264 152.781375,28.4467443 C152.781375,28.6838894 152.946584,29.0039438 153.740319,29.0039438 C154.204245,29.0039438 154.6066,28.8594621 154.864472,28.7046167 L154.864472,28.7046167 Z M156.61837,28.9832165 L156.61837,29.7464701 L156.453161,29.7775611 L156.359888,29.7775611 C155.895962,29.7775611 155.586881,29.6531971 155.286944,29.3337523 C155.153435,29.447143 154.648664,29.8287698 153.750682,29.8287698 C153.194093,29.8287698 152.708829,29.6842881 152.440593,29.2922976 C152.193084,29.5708974 151.760249,29.7775611 151.151231,29.7775611 L150.986631,29.7464701 L150.986631,28.9832165 L151.151231,28.9521255 C151.59504,28.9521255 152.058966,28.8180074 152.224175,28.560135 L152.224175,28.4881989 C152.224175,27.5597362 152.967311,26.4867918 153.822619,26.4867918 C154.420663,26.4867918 154.740718,26.9306006 155.205254,27.8279723 C155.658817,28.694253 155.762453,28.9521255 156.453161,28.9521255 L156.61837,28.9832165 Z" id="Fill-91" fill="#E8C3A4" mask="url(#mask-2)"></path>
                    <path d="M157.598225,25.8371727 C157.814642,25.5280915 158.144451,25.2696095 158.144451,25.2696095 C158.144451,25.2696095 158.474259,25.5280915 158.712014,25.8371727 C158.474259,26.1364998 158.144451,26.3943722 158.144451,26.3943722 C158.144451,26.3943722 157.814642,26.1364998 157.598225,25.8371727 L157.598225,25.8371727 Z M159.81605,28.9834603 L159.81605,29.746714 L159.650841,29.7771954 C159.052796,29.7771954 158.330387,29.7052593 157.917669,29.2718141 C157.887188,29.3029051 157.856097,29.3437502 157.814642,29.3748412 C157.577497,29.5918686 157.175753,29.7771954 156.453344,29.7771954 L156.288745,29.746714 L156.288745,28.9834603 L156.453344,28.9523693 C157.392171,28.9523693 157.618342,28.6841332 157.650043,28.5189242 C157.681134,28.3232337 157.835979,26.9405985 157.835979,26.9405985 L158.516324,26.9405985 L158.340751,28.6426785 C158.58826,28.8487326 159.135096,28.9523693 159.650841,28.9523693 L159.81605,28.9834603 Z" id="Fill-92" fill="#E8C3A4" mask="url(#mask-2)"></path>
                    <path d="M160.362398,25.7546901 C160.569062,25.4657266 160.888506,25.2084638 160.888506,25.2084638 C160.888506,25.2084638 161.146379,25.424272 161.352433,25.6723904 C161.559097,25.424272 161.816969,25.2084638 161.816969,25.2084638 C161.816969,25.2084638 162.12666,25.4657266 162.343078,25.7546901 C162.12666,26.0332899 161.816969,26.2911623 161.816969,26.2911623 C161.816969,26.2911623 161.559097,26.0741349 161.352433,25.8369898 C161.146379,26.0741349 160.888506,26.2911623 160.888506,26.2911623 C160.888506,26.2911623 160.569062,26.0332899 160.362398,25.7546901 L160.362398,25.7546901 Z M163.013668,28.9832774 L163.013668,29.7465311 L162.848459,29.7776221 C162.249805,29.7776221 161.528006,29.7050764 161.115288,29.2722409 C161.084806,29.3027223 161.053715,29.3441769 161.012261,29.3746583 C160.775116,29.5916857 160.373371,29.7776221 159.650962,29.7776221 L159.486363,29.7465311 L159.486363,28.9832774 L159.650962,28.9521864 C160.589789,28.9521864 160.815961,28.6839503 160.847661,28.5187413 C160.878752,28.3230508 161.033598,26.9404156 161.033598,26.9404156 L161.713942,26.9404156 L161.538369,28.6424957 C161.785878,28.8491594 162.332104,28.9521864 162.848459,28.9521864 L163.013668,28.9832774 Z" id="Fill-93" fill="#E8C3A4" mask="url(#mask-2)"></path>
                    <path d="M162.683006,29.7464701 L162.683006,28.9832165 L186.551752,28.9521255 C187.43876,28.9521255 187.810633,28.8180074 187.810633,28.560135 L187.810633,22.7534328 L188.532432,22.7016145 L188.532432,27.8895447 C188.532432,28.7558254 188.253832,29.1789069 187.934388,29.4367794 C187.697242,29.6227157 187.283915,29.7775611 186.551752,29.7775611 L162.683006,29.7464701 Z" id="Fill-94" fill="#E8C3A4" mask="url(#mask-2)"></path>
                    <polygon id="Fill-95" fill="#E8C3A4" mask="url(#mask-2)" points="189.770403 22.7533109 190.492811 22.7014926 190.492811 29.7774392 189.770403 29.7774392"></polygon>
                    <path d="M193.072145,28.9522474 C193.536682,28.9522474 193.928062,28.8492203 194.185935,28.766311 C194.082908,28.044512 193.701281,27.3123494 193.134327,27.3123494 C192.566764,27.3123494 192.196111,27.9926937 192.196111,28.4572298 C192.196111,28.8388567 192.690519,28.9522474 193.072145,28.9522474 M194.825434,28.9833384 C194.825434,30.2727006 194.22739,31.7882346 192.690519,31.7882346 C192.030292,31.7882346 191.627938,31.5614532 191.627938,31.5614532 L191.60782,30.7878359 C191.679756,30.8085632 192.051019,30.9634086 192.690519,30.9634086 C193.58789,30.9634086 194.082908,30.2513636 194.206662,29.5606557 C193.969517,29.643565 193.546436,29.7776831 193.041054,29.7776831 C192.205865,29.7776831 191.627938,29.3850829 191.627938,28.5084386 C191.627938,27.6830029 192.24671,26.4869137 193.247718,26.4869137 C194.299935,26.4869137 194.825434,27.910394 194.825434,28.9833384" id="Fill-96" fill="#E8C3A4" mask="url(#mask-2)"></path>
                    <path d="M89.017506,18.2879722 C87.9756525,18.4629353 86.8411357,18.6177807 85.7377099,18.7104441 L85.6651642,17.9782814 C85.912673,17.9575541 86.1601818,17.916709 86.4180542,17.8953721 C86.2321178,17.7411363 85.9846091,17.4210819 85.9846091,16.9571553 C85.9846091,16.1317196 86.624718,15.3587119 87.4080893,15.3587119 C88.0786796,15.3587119 88.4706701,15.8330022 88.4706701,15.8330022 L88.1201343,16.3999558 C88.1201343,16.3999558 87.7695984,16.1530566 87.3361533,16.1530566 C86.8307721,16.1634203 86.5314449,16.6169831 86.5314449,16.9266739 C86.5314449,17.19491 86.8411357,17.6789543 87.583662,17.6789543 C87.9238342,17.6789543 88.4499428,17.5966546 88.9345966,17.5247185 L89.017506,18.2879722 Z" id="Fill-97" fill="#E8C3A4" mask="url(#mask-2)"></path>
                    <path d="M90.719586,16.761221 C90.719586,17.5555657 90.9872125,17.7823471 91.8541028,17.7823471 L92.0187023,17.8134381 L92.0187023,18.5766918 L91.8541028,18.6077828 L91.7199848,18.6077828 C90.7403134,18.6077828 89.9971774,18.338937 89.9971774,16.2351125 L89.9971774,11.5836545 L90.719586,11.5318361 L90.719586,16.761221 Z" id="Fill-98" fill="#E8C3A4" mask="url(#mask-2)"></path>
                    <path d="M130.6889,17.0398208 C130.6889,16.6789213 130.10061,15.6571856 129.213601,15.6571856 C128.202839,15.6571856 127.223168,16.8953391 126.707423,17.7000474 C127.047595,17.7512561 127.418858,17.7823471 127.770003,17.7823471 L127.893148,17.7823471 C129.110574,17.7823471 130.6889,17.5348383 130.6889,17.0398208 L130.6889,17.0398208 Z M132.504371,17.8134381 L132.504371,18.5766918 L132.339162,18.6077828 C131.761845,18.6077828 131.101618,18.4937824 130.657809,18.0609469 C129.976855,18.5041461 128.863066,18.6077828 127.862057,18.6077828 L127.738912,18.6077828 C126.469668,18.6077828 125.58266,18.3188193 125.252851,18.0402196 C124.963888,18.5870554 124.427416,18.6077828 123.953126,18.6077828 L91.688589,18.5766918 L91.688589,17.8134381 L123.953126,17.7823471 C124.479234,17.7823471 124.757834,17.7098014 124.819406,17.5244747 C124.871225,17.379993 125.02607,16.4417762 125.02607,16.4417762 L125.686297,16.4417762 C125.645452,16.7404937 125.603387,17.0294571 125.552179,17.2976932 C125.665569,17.4007203 125.861869,17.4933837 126.099014,17.5653197 C126.697059,16.596012 127.904122,14.8323595 129.327602,14.8323595 C130.441391,14.8323595 131.297308,16.0906307 131.297308,16.9465478 C131.297308,17.1635752 131.256463,17.348902 131.173554,17.514111 C131.421063,17.6689564 131.771599,17.7823471 132.339162,17.7823471 L132.504371,17.8134381 Z" id="Fill-99" fill="#E8C3A4" mask="url(#mask-2)"></path>
                    <path d="M138.321741,16.1631764 L138.249805,16.9264301 L138.083987,16.9264301 L137.62067,16.9264301 C137.06347,17.0190935 136.103917,17.4622927 135.485145,17.8238018 C134.535955,18.3700281 133.57701,18.6077828 132.524793,18.6077828 L132.339467,18.6077828 L132.174258,18.5766918 L132.174258,17.8134381 L132.339467,17.7823471 L132.504066,17.7823471 C133.597738,17.7823471 134.546928,17.5653197 135.299208,17.1843025 C135.485145,17.0910295 135.867381,16.9160664 136.258762,16.7508574 C136.062462,16.6886753 135.867381,16.6069853 135.63999,16.4929849 C135.010245,16.1832941 134.464019,15.8949403 133.989728,15.8949403 C133.442892,15.8949403 132.947875,16.1735401 132.947875,16.1735401 L132.947875,15.4614951 C132.947875,15.4614951 133.38132,15.121323 134.062274,15.121323 C134.649955,15.121323 135.247999,15.4614951 135.846044,15.7504586 C136.557479,16.1009944 137.156134,16.1631764 137.940115,16.1631764 L138.321741,16.1631764 Z" id="Fill-100" fill="#E8C3A4" mask="url(#mask-2)"></path>
                    <path d="M142.107528,17.4419921 C142.107528,17.245692 141.993528,16.9158835 141.602147,16.4415933 C141.137611,16.8847925 140.426176,17.4316284 139.900067,17.7827739 L140.859011,17.7827739 C141.58142,17.7827739 142.107528,17.6480462 142.107528,17.4419921 L142.107528,17.4419921 Z M139.837885,20.0615615 C140.012848,20.0615615 140.374357,19.9999892 140.529203,19.9585345 L140.529203,20.4230707 C140.240239,20.484643 139.580013,20.6083974 138.93015,20.6083974 L138.93015,20.1651982 C139.033786,20.1651982 139.136813,20.1548345 139.20875,20.1444709 C139.156931,20.0719252 139.095359,19.9280531 139.095359,19.7939351 C139.095359,19.4324259 139.414804,18.9892267 139.828131,18.9892267 C140.012848,18.9892267 140.189031,19.0818901 140.281694,19.2062541 L140.198785,19.6494533 C140.07503,19.5360626 139.961639,19.4738806 139.807404,19.4738806 C139.528804,19.4738806 139.40444,19.6701807 139.40444,19.7628441 C139.40444,19.8658711 139.538558,20.0615615 139.837885,20.0615615 L139.837885,20.0615615 Z M142.767145,13.4507607 C142.767145,14.6364862 142.499519,15.3686489 142.066074,15.9362121 C142.41661,16.4105023 142.695209,16.9573382 142.695209,17.3907834 C142.695209,18.3186365 141.993528,18.6075999 140.724893,18.6075999 C140.27133,18.6075999 139.32275,18.6075999 138.919786,18.5350542 L139.04415,17.7413192 C139.528804,17.3907834 140.601139,16.523893 141.189429,15.9673031 C140.529203,15.2656218 139.528804,14.4090952 138.321741,13.5226967 L138.631432,12.7801704 C139.837885,13.6976598 140.901076,14.6053952 141.653356,15.4405849 C141.880137,15.1211401 142.044737,14.7498769 142.044737,13.5324508 L142.044737,11.5834716 L142.767145,11.5316532 L142.767145,13.4507607 Z" id="Fill-101" fill="#E8C3A4" mask="url(#mask-2)"></path>
                    <polygon id="Fill-102" fill="#E8C3A4" mask="url(#mask-2)" points="144.004872 11.5835325 144.727281 11.5317142 144.727281 18.6076609 144.004872 18.6076609"></polygon>
                    <path d="M150.812583,17.2458139 C150.812583,16.7404327 150.441929,16.0283878 149.80182,15.4925252 C149.234867,15.9979064 148.904449,16.7611601 148.904449,17.1531506 C148.904449,17.6585318 149.40983,17.8341045 149.812184,17.8341045 C150.410838,17.8341045 150.812583,17.5969594 150.812583,17.2458139 M148.842876,13.4710003 C149.04893,13.1820369 149.368985,12.9241644 149.368985,12.9241644 C149.368985,12.9241644 149.626857,13.1411918 149.833521,13.388091 C150.038965,13.1411918 150.296838,12.9241644 150.296838,12.9241644 C150.296838,12.9241644 150.605919,13.1820369 150.823556,13.4710003 C150.605919,13.7489905 150.296838,14.0074725 150.296838,14.0074725 C150.296838,14.0074725 150.038965,13.7904451 149.833521,13.5533 C149.626857,13.7904451 149.368985,14.0074725 149.368985,14.0074725 C149.368985,14.0074725 149.04893,13.7489905 148.842876,13.4710003 M151.431964,17.1220596 C151.431964,17.9889499 150.874765,18.6589305 149.791457,18.6589305 C148.791667,18.6589305 148.336885,18.0090676 148.336885,17.2153326 C148.336885,16.4106242 148.811785,15.4614342 149.595766,14.7707262 L150.018238,14.6469718 C150.75101,15.1931981 151.431964,16.1832332 151.431964,17.1220596" id="Fill-103" fill="#E8C3A4" mask="url(#mask-2)"></path>
                    <path d="M187.223501,17.8134381 L187.223501,18.5766918 L155.340591,18.6077828 C154.752301,18.6077828 154.402374,18.4322101 154.174983,18.1438562 L154.134138,18.4011191 C154.020138,19.0924367 153.514757,20.618944 151.988249,20.618944 C151.596868,20.618944 151.370087,20.4537349 151.370087,20.4537349 L151.328632,19.6801176 C151.328632,19.6801176 151.606623,19.7941179 151.988249,19.7941179 C153.16483,19.7941179 153.556211,18.6077828 153.556211,17.7305288 C153.556211,17.5555657 153.370885,16.7715847 153.216039,15.946149 L153.865902,15.8534856 C153.865902,15.8534856 153.989047,16.3899579 154.092074,16.9160664 C154.247529,17.3696293 154.505401,17.7823471 155.340591,17.7823471 L187.223501,17.8134381 Z" id="Fill-104" fill="#E8C3A4" mask="url(#mask-2)"></path>
                    <path d="M188.94643,14.1205584 L188.94643,14.5850946 C188.657467,14.646667 187.99724,14.7704214 187.347377,14.7704214 L187.347377,14.3272222 C187.451014,14.3272222 187.554041,14.3168585 187.625977,14.3064948 C187.574768,14.2339492 187.511977,14.0894674 187.511977,13.9553494 C187.511977,13.5950595 187.832641,13.1512507 188.244749,13.1512507 C188.430076,13.1512507 188.605648,13.2439141 188.698921,13.3676685 L188.616012,13.8114773 C188.492867,13.6980866 188.378867,13.6359046 188.224022,13.6359046 C187.946031,13.6359046 187.821667,13.831595 187.821667,13.924868 C187.821667,14.0278951 187.955785,14.2235855 188.255113,14.2235855 C188.430076,14.2235855 188.791585,14.1620131 188.94643,14.1205584 L188.94643,14.1205584 Z M188.595894,15.0490212 C188.708675,15.6263384 188.853767,16.5962558 188.853767,17.1321184 C188.853767,17.5966546 188.678804,17.9575541 188.441049,18.1849451 C188.152085,18.4525716 187.666822,18.607417 187.058414,18.607417 L186.893814,18.5769356 L186.893814,17.813682 L187.058414,17.782591 C187.842395,17.782591 188.183177,17.5862909 188.183177,17.3906005 C188.183177,16.905337 188.090513,16.2042653 187.91494,15.1831392 L188.595894,15.0490212 Z" id="Fill-105" fill="#E8C3A4" mask="url(#mask-2)"></path>
                    <polygon id="Fill-106" fill="#E8C3A4" mask="url(#mask-2)" points="189.988284 11.5835325 190.710083 11.5317142 190.710083 18.6076609 189.988284 18.6076609"></polygon>
                    <path d="M191.432552,17.5967765 C191.762361,17.7101672 192.236651,17.8339216 192.917605,17.8339216 C193.598559,17.8339216 194.18624,17.6790762 194.18624,17.5455678 C194.18624,17.0499406 193.567468,15.7916694 192.79385,14.6467889 L193.536377,14.4718258 C193.98994,15.0387794 194.825129,16.4726234 194.825129,17.4108401 C194.825129,17.8442853 194.630049,18.1844574 194.330721,18.3703938 C194.021031,18.5660843 193.463831,18.6593573 192.886514,18.6593573 C192.28786,18.6593573 191.762361,18.5764479 191.463034,18.4014848 L191.432552,17.5967765 Z" id="Fill-107" fill="#E8C3A4" mask="url(#mask-2)"></path>
                    <path d="M60.1092737,33.4795243 L61.8278137,33.4795243 L61.8278137,4.37651598 L60.1092737,4.37651598 L60.1092737,33.4795243 Z M60.1092737,64.8460795 L61.8278137,64.8460795 L61.8278137,41.8021592 L60.1092737,41.8021592 L60.1092737,64.8460795 Z M49.208524,27.8605874 L50.9270639,27.8605874 L50.9270639,4.37651598 L49.208524,4.37651598 L49.208524,27.8605874 Z M49.208524,64.8460795 L50.9270639,64.8460795 L50.9270639,35.9704623 L49.208524,35.9704623 L49.208524,64.8460795 Z M38.3077742,20.776106 L40.0263142,20.776106 L40.0263142,4.37590635 L38.3077742,4.37590635 L38.3077742,20.776106 Z M38.3077742,64.8460795 L40.0263142,64.8460795 L40.0263142,29.3243031 L38.3077742,29.3243031 L38.3077742,64.8460795 Z M27.3143611,38.8674123 L29.0329011,38.8674123 L29.0329011,4.37590635 L27.3143611,4.37590635 L27.3143611,38.8674123 Z M27.3143611,64.8460795 L29.0329011,64.8460795 L29.0329011,45.7001176 L27.3143611,45.7001176 L27.3143611,64.8460795 Z M16.8098693,31.9310704 L18.5284093,31.9310704 L18.5284093,4.37590635 L16.8098693,4.37590635 L16.8098693,31.9310704 Z M16.8098693,64.8460795 L18.5284093,64.8460795 L18.5284093,40.0994695 L16.8098693,40.0994695 L16.8098693,64.8460795 Z M6.5498381,24.6771125 L8.26837808,24.6771125 L8.26837808,4.37651598 L6.5498381,4.37651598 L6.5498381,24.6771125 Z M6.5498381,64.8460795 L8.26837808,64.8460795 L8.26837808,34.4805327 L6.5498381,34.4805327 L6.5498381,64.8460795 Z M0,69.2219859 L68.3776518,69.2219859 L68.3776518,0 L0,0 L0,69.2219859 Z" id="Fill-108" fill="#E8C3A4" mask="url(#mask-2)"></path>
                </g>
            </g>
        </g>
    </g>
</svg>