<?xml version="1.0" encoding="UTF-8"?>
<svg width="89px" height="45px" viewBox="0 0 89 45" version="1.1" xmlns="http://www.w3.org/2000/svg" xmlns:xlink="http://www.w3.org/1999/xlink">
    <title>logo-mobile</title>
    <g id="Symbols" stroke="none" stroke-width="1" fill="none" fill-rule="evenodd">
        <g id="Mobile-nav" transform="translate(-116.000000, -8.000000)">
            <g id="logo-mobile" transform="translate(116.000000, 8.000000)">
                <g id="Group" transform="translate(52.000000, 5.000000)">
                    <path d="M35.8925,17.9465 C35.8925,27.8585 27.858,35.8935 17.9465,35.8935 C8.035,35.8935 -1.42108547e-14,27.8585 -1.42108547e-14,17.9465 C-1.42108547e-14,8.0355 8.035,1.42108547e-14 17.9465,1.42108547e-14 C27.858,1.42108547e-14 35.8925,8.0355 35.8925,17.9465" id="Fill-1" fill="#FEFEFE"></path>
                    <path d="M35.8925,17.9465 C35.8925,27.8585 27.858,35.8935 17.9465,35.8935 C8.035,35.8935 -1.42108547e-14,27.8585 -1.42108547e-14,17.9465 C-1.42108547e-14,8.0355 8.035,1.42108547e-14 17.9465,1.42108547e-14 C27.858,1.42108547e-14 35.8925,8.0355 35.8925,17.9465 Z" id="Stroke-3" stroke="#010202" stroke-width="0.5"></path>
                    <path d="M11.33975,15.4209 C11.69275,14.3634 13.99375,13.5799 15.23575,14.1739 C15.23575,14.1739 14.31825,13.4434 13.45275,13.4849 L13.99375,13.1334 C13.99375,13.1334 13.54625,12.6729 12.51825,12.9434 L12.91075,12.5769 C12.91075,12.5769 11.81325,12.2664 11.03075,12.7684 L11.50125,12.0359 C11.50125,12.0359 10.80125,11.5629 9.90675,11.9414 L10.12325,11.4409 C10.12325,11.4409 8.89125,11.0889 8.44525,11.3459 C8.44525,11.3459 11.31325,8.6264 16.57625,14.5669 L15.96775,13.1189 L15.46775,12.9434 L15.64175,12.5509 L14.56075,12.1979 L14.95325,11.7934 L13.51975,11.2509 L13.95225,10.7909 C13.95225,10.7909 13.58875,10.3594 12.72025,10.5069 L13.00475,10.1009 C13.00475,10.1009 11.78775,9.5604 11.40825,9.6814 C11.03075,9.8044 11.78775,9.1004 11.78775,9.1004 C11.78775,9.1004 9.85175,8.0569 8.98675,8.1104 C8.98675,8.1104 11.75875,6.7724 17.08975,13.7424 L16.92725,12.6459 L15.91175,11.7524 L16.29225,11.5629 L15.46775,10.8339 L15.84525,10.6974 C15.84525,10.6974 15.45425,9.8699 14.65625,9.4929 L15.11425,9.1949 C15.11425,9.1949 14.60025,8.0179 13.61375,7.8559 L14.30525,7.7604 C14.30525,7.7604 13.45275,6.6504 12.74925,6.7044 L13.19375,6.3654 C13.19375,6.3654 11.66625,4.7019 11.59725,4.7554 C11.59725,4.7554 14.31825,5.4309 16.88825,10.4519 C16.88825,10.4519 17.11725,10.6574 17.11725,10.3189 C17.13075,8.6939 17.08975,3.5374 18.76725,2.3459 C18.76725,2.3459 18.29575,3.1994 18.32175,3.6459 L18.92925,3.4299 C18.92925,3.4299 18.15875,4.7289 18.06375,5.0124 C17.96825,5.2824 18.63225,4.8644 18.63225,4.8644 L18.27975,5.7299 L18.98475,5.6894 L18.34875,7.2174 L18.46975,7.7604 L18.83325,7.7864 L18.32175,8.6524 L18.44275,9.8699 L18.74025,9.8979 C18.74025,9.8979 21.82625,5.0259 23.89475,4.5389 C23.89475,4.5389 22.43325,5.7834 22.29875,6.1634 C22.14875,6.5284 22.31225,6.5544 22.31225,6.5544 C22.31225,6.5544 21.58125,6.9074 21.31025,7.5159 C21.02625,8.1394 21.41775,7.9489 21.41775,7.9489 C21.41775,7.9489 20.93125,8.3029 20.76825,8.6524 C20.60775,9.0059 20.81025,9.1949 20.67425,9.3849 C20.52675,9.5604 19.94425,10.0874 19.75575,10.6014 C19.56575,11.1169 19.21475,10.9534 19.24025,11.6299 C19.24025,11.6299 18.56375,12.7809 18.46975,13.2539 L18.57925,13.5394 C18.57925,13.5394 22.31225,7.5689 26.68075,7.7604 C26.68075,7.7604 25.43375,8.1394 25.46475,8.4369 L25.68075,8.5044 C25.68075,8.5044 24.53025,8.4919 23.77075,8.9509 C23.77075,8.9509 23.86625,9.3849 24.09925,9.4784 C24.09925,9.4784 23.19125,9.5474 22.64875,10.0064 C22.64875,10.0064 22.69125,10.2229 23.00225,10.2499 C23.00225,10.2499 22.10975,10.3189 21.77125,10.7909 L21.85275,11.1709 C21.85275,11.1709 21.51475,11.1169 21.28425,11.2779 C21.28425,11.2779 19.28175,13.3484 18.82125,14.2829 C18.82125,14.2829 22.81325,9.7354 27.08725,11.0224 C27.08725,11.0224 26.07275,11.0469 25.72075,11.3059 C25.72075,11.3059 25.53025,11.4409 25.77475,11.6984 C25.77475,11.6984 25.20675,11.2374 24.26025,12.0099 C24.26025,12.0099 24.09925,12.0779 24.38125,12.2944 C24.38125,12.2944 23.27375,12.0359 22.92125,12.4959 C22.92125,12.4959 22.90825,12.7809 23.13575,12.9304 C23.13575,12.9304 22.29875,12.6459 22.02775,12.9434 C22.02775,12.9434 21.98825,13.3229 22.20425,13.4434 C22.20425,13.4434 21.40625,13.1869 21.21775,13.4434 C21.21775,13.4434 21.21775,13.6734 21.47425,13.7424 C21.47425,13.7424 19.63325,14.1484 18.91675,15.0404 L18.95825,15.2314 C21.02625,14.1209 22.02775,13.5394 24.28675,15.2979 C24.28675,15.2979 23.23225,14.7824 23.16325,14.8784 C23.09725,14.9739 23.04325,15.1084 23.07075,15.2569 C23.07075,15.2569 22.62275,14.4994 22.17825,14.6614 C21.73075,14.8249 22.05325,15.3919 22.05325,15.3919 C22.05325,15.3919 20.95625,14.5264 21.09625,15.6234 C21.09625,15.6234 19.78075,14.6614 18.64525,17.2069 L18.64525,17.4364 L17.01025,17.4504 C17.01025,17.4504 16.26475,15.8394 15.93925,15.7439 C15.93925,15.7439 15.46775,15.1769 14.74825,15.8119 C14.74825,15.8119 15.52075,14.8109 13.80325,15.4594 C13.80325,15.4594 14.20875,14.2829 12.62675,15.3659 C12.62675,15.3659 13.00475,14.5389 11.43375,15.4329 L11.33975,15.4209 Z" id="Fill-5" fill="#00A550"></path>
                    <path d="M15.8322,15.70385 C14.9932,16.46285 14.1827,17.15185 15.1837,18.68185 C15.4807,19.15485 15.9807,18.45185 15.9807,18.45185 C16.9682,16.94785 15.8322,15.70385 15.8322,15.70385" id="Fill-7" fill="#9C2D33"></path>
                    <path d="M15.42935,18.7898 C15.35235,18.7883 15.28685,18.7428 15.22985,18.6523 C14.90485,18.1553 14.77385,17.7538 14.77385,17.4078 C14.77385,16.7348 15.27435,16.2818 15.82585,15.7838 C15.92485,15.8993 16.33335,16.4228 16.33335,17.1778 C16.33335,17.5488 16.23035,17.9723 15.93485,18.4223 C15.86135,18.5253 15.62535,18.7963 15.42935,18.7898 L15.42935,18.7898 Z M15.79585,15.6633 L15.75185,15.7028 C14.91685,16.4563 14.12785,17.1693 15.13785,18.7118 C15.21385,18.8338 15.31135,18.8973 15.42585,18.9003 C15.72035,18.9083 16.01335,18.5018 16.02535,18.4838 C17.02685,16.9598 15.88485,15.6798 15.87335,15.6673 L15.83635,15.6273 L15.79585,15.6633 Z" id="Fill-9" fill="#9C2D33"></path>
                    <path d="M19.83485,15.60935 C20.68885,16.35235 21.49985,17.04435 20.49685,18.57335 C20.18735,19.04735 19.70085,18.34435 19.70085,18.34435 C18.71535,16.85335 19.83485,15.60935 19.83485,15.60935" id="Fill-11" fill="#9C2D33"></path>
                    <path d="M19.74505,18.31225 C19.45055,17.86425 19.34705,17.44175 19.34705,17.06925 C19.34705,16.32225 19.74505,15.80425 19.84255,15.68975 C20.40405,16.17925 20.90705,16.62975 20.90705,17.30125 C20.90705,17.64575 20.77655,18.04775 20.45205,18.54375 C20.39155,18.63575 20.32305,18.68175 20.24305,18.6827611 C20.04805,18.68475 19.81805,18.41625 19.74505,18.31225 L19.74505,18.31225 Z M19.79455,15.57225 C19.78355,15.58525 18.65605,16.86575 19.65405,18.37475 C19.66605,18.39225 19.95055,18.79675 20.24505,18.7932726 C20.36205,18.79125 20.46255,18.72825 20.54505,18.60425 C21.56505,17.04425 20.75155,16.33375 19.88805,15.58175 L19.84755,15.54625 L19.79455,15.57225 Z" id="Fill-13" fill="#9C2D33"></path>
                    <path d="M12.32755,23.4453 C12.89655,23.1203 12.80105,22.6208 12.32755,22.4028 C11.15055,21.8888 10.65055,20.6848 10.41955,20.5913 C9.10705,20.0753 8.13455,19.2238 8.13455,19.2238 C7.94455,19.7778 7.74155,19.9808 7.83805,20.9278 L9.33905,22.5653 C8.96055,23.4598 7.63455,23.7443 6.94405,25.8133 C6.94405,25.8133 7.85155,27.1813 8.60755,27.5343 L8.83805,27.6128 C8.51205,25.8558 12.32755,23.4453 12.32755,23.4453" id="Fill-15" fill="#231F20"></path>
                    <path d="M5.5617,23.5276 C5.5702,23.5431 6.4167,25.2011 6.9002,25.8461 L6.9882,25.7806 C6.5092,25.1421 5.6667,23.4911 5.6587,23.4756 L5.5617,23.5276 Z" id="Fill-17" fill="#231F20"></path>
                    <path d="M5.6315,23.6477 C5.9565,22.1887 7.838,20.9282 7.838,20.9282 L5.7275,18.2492 C5.6315,17.2207 6.0525,16.8537 6.0525,16.8537 C5.023,15.7717 4.2665,13.6052 4.2665,13.6052 C4.075,14.1737 3.6155,15.6237 3.711,16.5697 L5.645,18.6407 L5.861,18.9247 C5.861,20.0482 4.32,20.6437 4.2665,22.0517 C4.2665,22.0517 4.861,22.4582 5.457,23.2837 C5.591,23.4727 5.6315,23.6477 5.6315,23.6477" id="Fill-19" fill="#00A550"></path>
                    <path d="M6.29435,10.5476 C7.40485,14.1341 9.74435,17.2741 12.49135,18.8566 L10.41935,20.5911 C8.21485,19.9406 5.25235,16.5696 4.26635,13.6051 L6.29435,10.5476 Z" id="Fill-21" fill="#EC1D24"></path>
                    <path d="M4.76625,8.75925 C5.09475,8.93625 5.75375,9.29075 5.83025,9.33275 C5.85175,9.43125 5.98725,10.06175 5.98725,10.06175 C5.98725,10.06175 20.69975,28.61075 20.85075,28.80175 C20.78275,28.86025 20.73825,28.89775 20.66475,28.95925 C20.50325,28.75425 5.81175,10.19675 5.81175,10.19675 C5.81175,10.19675 5.76125,10.23725 5.71175,10.27625 C5.73625,10.21725 5.76075,10.15975 5.76075,10.15975 C5.76075,10.15975 5.17325,9.91425 5.07675,9.87325 C5.05175,9.78575 4.86425,9.11275 4.76625,8.75925 L4.76625,8.75925 Z M4.44075,8.53925 L4.86425,10.05925 C4.86425,10.05925 5.57625,10.35825 5.63225,10.38175 C5.67275,10.43225 20.62975,29.32475 20.62975,29.32475 L21.20275,28.83425 C21.20275,28.83425 6.26075,9.99725 6.22425,9.95075 C6.21325,9.89575 6.05575,9.16425 6.05575,9.16425 L4.36025,8.25025 L4.44075,8.53925 Z" id="Fill-23" fill="#231F20"></path>
                    <polygon id="Fill-25" fill="#231F20" points="5.7516 10.26025 5.9171 10.45525 6.2546 10.17125 6.0906 9.97575"></polygon>
                    <path d="M6.09315,9.9736 L6.25165,10.1746 C6.29665,10.1391 6.31265,10.1576 6.31915,10.1666 C6.32365,10.1711 6.35165,10.2091 6.30765,10.2466 L6.47165,10.4406 C6.62065,10.3161 6.61115,10.1211 6.51665,10.0061 C6.42665,9.8946 6.25265,9.8491 6.09315,9.9736" id="Fill-27" fill="#231F20"></path>
                    <polygon id="Fill-29" fill="#231F20" points="5.94715 10.5271 6.10265 10.7281 6.46765 10.4451 6.31165 10.2431"></polygon>
                    <path d="M5.59195,10.5593 C5.60045,10.6633 5.66595,10.7528 5.76245,10.7938 C5.87245,10.8403 5.99745,10.8153 6.10545,10.7263 L5.94345,10.5293 C5.90545,10.5618 5.87595,10.5663 5.86145,10.5598 C5.85245,10.5553 5.84745,10.5478 5.84595,10.5383 C5.84495,10.5218 5.85895,10.4943 5.90295,10.4658 L5.76595,10.2498 C5.64645,10.3263 5.58245,10.4393 5.59195,10.5593" id="Fill-31" fill="#231F20"></path>
                    <path d="M23.66495,23.4299 C23.17545,23.2044 23.24495,22.6054 23.66495,22.3769 C25.05695,21.6589 25.28745,20.6849 25.51745,20.5909 C26.83195,20.0754 27.80445,19.2234 27.80445,19.2234 C27.99295,19.7774 28.19645,19.9809 28.10245,20.9279 L26.60245,22.5654 C26.97795,23.4599 28.30545,23.7439 28.99345,25.8134 C28.99345,25.8134 28.08895,27.1814 27.33095,27.5339 L27.09945,27.6129 C27.39795,25.7329 23.66495,23.4299 23.66495,23.4299" id="Fill-33" fill="#231F20"></path>
                    <path d="M28.9501,25.7805 L29.0376,25.846 C29.5236,25.201 30.3341,23.5745 30.3431,23.559 L30.2471,23.507 C30.2376,23.5215 29.4281,25.142 28.9501,25.7805" id="Fill-35" fill="#231F20"></path>
                    <path d="M30.30705,23.6477 C29.98355,22.1887 28.10255,20.9282 28.10255,20.9282 L30.21405,18.2492 C30.30705,17.2207 29.88705,16.8537 29.88705,16.8537 C30.91655,15.7717 31.67305,13.6052 31.67305,13.6052 C31.86305,14.1737 32.32305,15.6237 32.22855,16.5697 L30.29355,18.6407 L30.07655,18.9247 C30.07655,20.0482 31.62155,20.6437 31.67305,22.0517 C31.67305,22.0517 31.07855,22.4582 30.48405,23.2837 C30.34805,23.4727 30.30705,23.6477 30.30705,23.6477" id="Fill-37" fill="#00A550"></path>
                    <path d="M29.64395,10.5476 C28.53445,14.1341 26.19545,17.2741 23.44795,18.8566 L25.51745,20.5911 C27.72295,19.9406 30.68695,16.5696 31.67345,13.6051 L29.64395,10.5476 Z" id="Fill-39" fill="#EC1D24"></path>
                    <path d="M31.1718,8.75805 C31.0743,9.11155 30.8878,9.78555 30.8653,9.87305 C30.7668,9.91405 30.1768,10.15955 30.1768,10.15955 C30.1768,10.15955 30.2018,10.21705 30.2253,10.27605 C30.1758,10.23705 30.1263,10.19655 30.1263,10.19655 C30.1263,10.19655 15.4358,28.75405 15.2728,28.95955 C15.2008,28.89755 15.1568,28.86005 15.0878,28.80205 C15.2388,28.61105 29.9538,10.06155 29.9538,10.06155 C29.9538,10.06155 30.0863,9.43155 30.1068,9.33255 C30.1853,9.29105 30.8443,8.93605 31.1718,8.75805 L31.1718,8.75805 Z M31.3158,8.39255 L29.8833,9.16405 C29.8833,9.16405 29.7293,9.89605 29.7163,9.95055 C29.6793,9.99755 14.7358,28.83455 14.7358,28.83455 L15.3083,29.32505 C15.3083,29.32505 30.2643,10.43255 30.3063,10.38205 C30.3613,10.35805 31.0773,10.05955 31.0773,10.05955 L31.5768,8.25105 L31.3158,8.39255 Z" id="Fill-41" fill="#231F20"></path>
                    <polygon id="Fill-43" fill="#231F20" points="29.68205 10.1714 30.02355 10.4564 30.18605 10.2604 29.84455 9.9759"></polygon>
                    <path d="M29.42325,10.0039 C29.32925,10.1204 29.31675,10.3159 29.46675,10.4409 L29.63025,10.2469 C29.58775,10.2094 29.61725,10.1704 29.62075,10.1659 C29.62675,10.1574 29.64175,10.1394 29.68375,10.1729 L29.84275,9.9739 C29.68525,9.8489 29.51325,9.8939 29.42325,10.0039" id="Fill-45" fill="#231F20"></path>
                    <polygon id="Fill-47" fill="#231F20" points="29.46915 10.4453 29.83565 10.7288 29.99315 10.5273 29.62665 10.2428"></polygon>
                    <path d="M30.0375,10.46555 C30.0805,10.49405 30.0945,10.52155 30.093,10.53855 C30.0925,10.54755 30.086,10.55655 30.0775,10.56005 C30.0645,10.56605 30.0345,10.56155 29.995,10.52955 L29.835,10.72605 C29.942,10.81505 30.068,10.84055 30.1765,10.79405 C30.2725,10.75455 30.339,10.66405 30.347,10.56005 C30.3555,10.44005 30.2935,10.32705 30.173,10.25105 L30.0375,10.46555 Z" id="Fill-49" fill="#231F20"></path>
                    <polygon id="Fill-51" fill="#9C2D33" points="18.8212 30.1311 18.6322 17.4901 17.0497 17.4901 16.8592 30.1311"></polygon>
                    <path d="M18.5773,17.54565 C18.5788,17.65315 18.7628,29.96565 18.7648,30.07615 L16.9153,30.07615 C16.9173,29.96565 17.1018,17.65315 17.1038,17.54565 L18.5773,17.54565 Z M18.6323,17.43515 L16.9938,17.43515 L16.8038,30.18615 L18.8768,30.18615 L18.6853,17.43515 L18.6323,17.43515 Z" id="Fill-53" fill="#9C2D33"></path>
                    <path d="M16.7401,26.96115 L16.7256,27.19615 L16.7956,27.30715 C16.8896,27.47215 17.0631,27.77815 17.3796,27.65265 C17.3861,27.65015 17.7061,27.37765 17.7061,27.37765 C17.7061,27.37765 17.8021,27.28915 17.8331,27.25915 C17.8501,27.29865 17.8841,27.37565 17.8841,27.37565 C17.9431,27.53965 18.0531,27.84315 18.3586,27.74965 C18.7661,27.60915 18.9721,27.10065 18.9821,27.07965 L18.7456,26.98515 C18.7431,26.98915 18.5721,27.40565 18.2796,27.50715 C18.2316,27.52315 18.2011,27.50665 18.1236,27.28915 C18.0766,27.15965 18.0321,27.03815 17.9201,26.99465 C17.8786,26.97965 17.8121,26.97065 17.7321,27.01465 L17.4921,27.24165 L17.2796,27.41865 C17.2001,27.44965 17.1406,27.39715 17.0181,27.18115 C16.9471,27.05965 16.8756,26.93165 16.7401,26.96115 L16.7401,26.96115 Z" id="Fill-55" fill="#231F20"></path>
                    <path d="M16.72355,24.95725 L16.71205,25.19425 L16.78055,25.30325 C16.87555,25.46775 17.05055,25.77375 17.36705,25.64775 C17.36855,25.64625 17.69555,25.38075 17.69555,25.38075 C17.69555,25.38075 17.78305,25.29175 17.81805,25.25875 C17.83555,25.29925 17.87005,25.37625 17.87005,25.37625 C17.93105,25.54275 18.04155,25.85175 18.34955,25.74675 C18.75005,25.60475 18.95705,25.11275 18.96505,25.09075 L18.73055,24.99425 C18.72805,24.99875 18.55755,25.40175 18.26605,25.50575 C18.22005,25.52025 18.19255,25.51875 18.11005,25.28925 C18.06305,25.15925 18.01855,25.03575 17.90555,24.99225 C17.86305,24.97675 17.79705,24.96775 17.71755,25.01125 C17.71505,25.01225 17.47855,25.24425 17.47855,25.24425 L17.27155,25.41075 C17.18605,25.44475 17.12655,25.39275 17.00355,25.17625 C16.93205,25.05425 16.86055,24.92675 16.72355,24.95725" id="Fill-57" fill="#231F20"></path>
                    <path d="M16.7881,23.25505 L16.7736,23.48605 L16.8346,23.58455 C16.9196,23.73355 17.0966,24.04505 17.4091,23.91705 C17.4121,23.91605 17.7256,23.66355 17.7256,23.66355 C17.7256,23.66355 17.8061,23.58955 17.8416,23.55555 C17.8601,23.59505 17.8841,23.65355 17.8841,23.65355 C17.9416,23.81205 18.0476,24.10905 18.3486,24.01355 C18.7361,23.88855 18.9436,23.39255 18.9521,23.37105 L18.7166,23.27505 C18.6696,23.38755 18.4991,23.69705 18.2701,23.77005 C18.2271,23.78355 18.2001,23.78155 18.1236,23.56755 C18.0791,23.44205 18.0381,23.32505 17.9271,23.28555 C17.8851,23.27105 17.8206,23.26305 17.7426,23.30905 L17.5156,23.52105 L17.3096,23.68255 C17.2311,23.71455 17.1736,23.66505 17.0556,23.45805 C16.9921,23.34655 16.9216,23.22005 16.7881,23.25505 L16.7881,23.25505 Z" id="Fill-59" fill="#231F20"></path>
                    <path d="M16.7398,21.8317 L16.7288,22.0687 L16.7978,22.1772 C16.8893,22.3337 17.0593,22.6237 17.3588,22.4937 L17.6773,22.2437 C17.6773,22.2437 17.7653,22.1647 17.8003,22.1322 C17.8178,22.1732 17.8428,22.2332 17.8428,22.2332 C17.9003,22.3927 18.0058,22.6882 18.3053,22.5922 C18.6993,22.4682 18.8908,21.9692 18.9003,21.9477 L18.6618,21.8572 C18.6608,21.8607 18.5038,22.2617 18.2288,22.3487 C18.1848,22.3627 18.1593,22.3597 18.0838,22.1477 C18.0393,22.0227 17.9958,21.9062 17.8873,21.8647 C17.8448,21.8507 17.7808,21.8422 17.7018,21.8872 C17.7018,21.8887 17.4673,22.0997 17.4673,22.0997 L17.2593,22.2582 C17.1863,22.2912 17.1318,22.2427 17.0183,22.0467 C16.9513,21.9332 16.8743,21.8032 16.7398,21.8317 L16.7398,21.8317 Z" id="Fill-61" fill="#231F20"></path>
                    <path d="M16.8301,20.18085 L16.8156,20.41535 L16.8781,20.51385 C16.9671,20.66635 17.1321,20.94985 17.4221,20.82885 C17.4241,20.82835 17.7396,20.57735 17.7396,20.57735 C17.7396,20.57735 17.8121,20.50885 17.8421,20.47985 C17.8601,20.51785 17.8841,20.57285 17.8841,20.57285 C17.9361,20.71535 18.0431,21.01035 18.3346,20.91185 C18.7106,20.78885 18.9056,20.31935 18.9126,20.29985 L18.6761,20.20335 C18.6756,20.20785 18.5171,20.58385 18.2541,20.67035 C18.2191,20.68285 18.1976,20.68885 18.1236,20.48585 C18.0821,20.37085 18.0381,20.25185 17.9291,20.21185 C17.8876,20.19735 17.8206,20.19035 17.7426,20.23585 C17.7426,20.23735 17.5276,20.43535 17.5276,20.43535 L17.3241,20.59385 C17.2596,20.62135 17.2081,20.57335 17.0991,20.38585 C17.0341,20.27485 16.9626,20.15035 16.8301,20.18085 L16.8301,20.18085 Z" id="Fill-63" fill="#231F20"></path>
                    <path d="M16.8446,18.8262 L16.8111,19.0627 L16.8756,19.1652 C16.9636,19.3217 17.1296,19.6122 17.4216,19.4907 C17.4251,19.4897 17.7396,19.2387 17.7396,19.2387 C17.7396,19.2387 17.8111,19.1697 17.8421,19.1407 C17.8601,19.1797 17.8841,19.2337 17.8841,19.2337 C17.9361,19.3767 18.0431,19.6712 18.3346,19.5732 C18.7106,19.4487 18.9056,18.9792 18.9126,18.9592 L18.6761,18.8632 C18.6756,18.8677 18.5171,19.2437 18.2541,19.3312 C18.2191,19.3432 18.1976,19.3502 18.1236,19.1477 C18.0821,19.0312 18.0381,18.9122 17.9291,18.8727 C17.8876,18.8582 17.8206,18.8492 17.7426,18.8967 C17.7426,18.8982 17.5276,19.0957 17.5276,19.0957 L17.3231,19.2557 C17.2596,19.2817 17.2066,19.2317 17.0971,19.0397 C17.0306,18.9217 16.9681,18.8107 16.8446,18.8262 L16.8446,18.8262 Z" id="Fill-65" fill="#231F20"></path>
                    <path d="M16.8029,17.3674 L16.7819,17.5969 L16.8364,17.6924 C16.9079,17.8364 17.0574,18.1364 17.3559,18.0149 L17.6599,17.7749 C17.6599,17.7749 17.7419,17.6994 17.7769,17.6679 C17.7929,17.7054 17.8234,17.7689 17.8234,17.7689 C17.8754,17.9084 17.9874,18.1964 18.2684,18.0974 C18.6359,17.9919 18.8724,17.5269 18.8819,17.5074 L18.6544,17.3929 C18.5999,17.4994 18.4114,17.7914 18.1904,17.8559 C18.1524,17.8684 18.1329,17.8644 18.0614,17.6779 L17.8634,17.4014 L17.6794,17.4194 L17.4489,17.6329 L17.2604,17.7794 C17.2044,17.8019 17.1639,17.7794 17.0634,17.5774 C17.0089,17.4684 16.9409,17.3334 16.8029,17.3674" id="Fill-67" fill="#231F20"></path>
                    <path d="M7.21575,27.8518 C8.09875,28.2668 9.54275,28.1503 10.70325,28.0568 C11.44425,27.9968 12.20775,27.9353 12.35325,28.0783 L12.36425,28.1073 C12.34125,28.4163 11.84375,28.4353 11.24525,28.4263 C10.86925,28.4203 10.62075,28.4183 10.51225,28.5463 C10.34825,28.7523 10.28875,28.8988 10.32325,29.0108 L10.51275,28.8863 C10.55925,28.8998 10.56925,28.9358 10.56875,28.9443 C10.56875,28.9443 10.57125,28.8808 10.71025,28.7078 C10.75875,28.6748 11.03825,28.6798 11.24175,28.6818 C11.80425,28.6893 12.57475,28.7008 12.61875,28.1248 C12.61875,28.1233 12.53125,27.8958 12.53125,27.8958 C12.31375,27.6818 11.71825,27.7188 10.68275,27.8023 C9.55325,27.8933 8.14675,28.0073 7.32375,27.6203 L7.21575,27.8518 Z" id="Fill-69" fill="#231F20"></path>
                    <path d="M7.18885,27.83445 C7.18885,27.83445 8.47235,28.88595 8.77885,29.13745 C8.39985,29.23795 6.87135,29.64495 6.87135,29.64495 L6.93685,29.88995 L9.32585,29.25645 L7.35035,27.63745 L7.18885,27.83445 Z" id="Fill-71" fill="#231F20"></path>
                    <path d="M6.8483,29.88255 C6.9248,29.91805 8.7338,30.77555 10.6318,30.44555 L10.5888,30.19505 C8.7738,30.51055 6.9773,29.66205 6.9593,29.65205 L6.8483,29.88255 Z" id="Fill-73" fill="#231F20"></path>
                    <path d="M12.37735,28.1721 C12.56885,28.5481 12.62085,28.8696 12.53335,29.1021 C12.44885,29.3251 12.26185,29.4006 12.25385,29.4021 L12.34335,29.6416 C12.35535,29.6376 12.63985,29.5281 12.76935,29.1996 C12.88835,28.8931 12.83335,28.5091 12.60535,28.0571 L12.37735,28.1721 Z" id="Fill-75" fill="#231F20"></path>
                    <path d="M25.0746,27.80225 C24.0096,27.71825 23.4446,27.68175 23.2296,27.89675 C23.1681,27.95825 23.1396,28.03725 23.1461,28.12575 C23.1766,28.70075 23.9516,28.68925 24.5191,28.68175 C24.7221,28.67975 25.0026,28.67525 25.0591,28.71425 C25.0591,28.71725 25.1471,28.85625 25.1471,28.85625 C25.1471,28.85525 25.1461,28.85275 25.1461,28.85175 C25.1461,28.83825 25.1606,28.83175 25.1711,28.82075 C25.1591,28.86875 25.1271,29.03825 25.1271,29.03825 C25.2106,29.05425 25.3186,29.04125 25.3756,28.95125 C25.4521,28.82575 25.3496,28.67075 25.2516,28.55025 C25.1476,28.42275 24.9276,28.42025 24.5151,28.42675 C23.9161,28.43525 23.4181,28.41625 23.3986,28.10825 C23.3981,28.08825 23.4016,28.08325 23.4106,28.07725 C23.5506,27.93525 24.3486,28.00025 25.0531,28.05675 C26.2156,28.15025 27.6611,28.26675 28.5346,27.85075 L28.4246,27.62025 C27.6106,28.00725 26.2056,27.89325 25.0746,27.80225" id="Fill-77" fill="#231F20"></path>
                    <path d="M26.4955,29.0952 L26.273,29.2652 L28.606,29.7432 L28.6545,29.4917 C28.6545,29.4917 27.284,29.2122 26.872,29.1287 C27.2195,28.8622 28.557,27.8362 28.557,27.8362 L28.403,27.6347 L26.4955,29.0952 Z" id="Fill-79" fill="#231F20"></path>
                    <path d="M25.05705,30.16725 L25.03105,30.42125 C27.32555,30.65375 28.64755,29.76025 28.70105,29.72325 L28.55705,29.51175 C28.54555,29.52125 27.25205,30.38975 25.05705,30.16725" id="Fill-81" fill="#231F20"></path>
                    <path d="M22.98085,29.2197 C23.09685,29.5092 23.34285,29.5962 23.35235,29.6007 L23.43685,29.3602 C23.43035,29.3577 23.28635,29.3012 23.21535,29.1192 C23.12835,28.8937 23.18735,28.5667 23.38535,28.1722 L23.15985,28.0567 C22.92135,28.5302 22.86185,28.9197 22.98085,29.2197" id="Fill-83" fill="#231F20"></path>
                    <path d="M24.97695,29.09715 C24.94295,29.26115 24.90645,29.49515 24.90645,29.85165 C24.90645,30.30015 24.97895,30.90115 25.19545,31.61815 C24.57395,31.91965 19.25245,34.29865 10.59145,31.82965 C10.67495,31.60065 10.81895,31.10815 10.81895,30.43165 C10.81895,30.06915 10.76345,29.64715 10.64795,29.19565 C11.85195,29.56615 18.29545,31.32715 24.97695,29.09715 L24.97695,29.09715 Z M25.11245,28.79265 C17.74845,31.34565 10.58945,28.91315 10.51795,28.88865 C10.51795,28.88865 10.49695,28.94765 10.47595,29.00815 C10.41445,29.02665 10.35395,29.04515 10.35395,29.04515 C10.50845,29.55465 10.56195,30.01965 10.56195,30.42115 C10.56195,31.29515 10.30845,31.85465 10.30495,31.86365 L10.24195,31.99815 L10.38495,32.04015 C19.75595,34.75665 25.34545,31.82965 25.40195,31.79865 L25.49495,31.74915 L25.46295,31.64965 C24.93095,29.97115 25.26895,28.96415 25.27395,28.95515 L25.36095,28.70665 L25.11245,28.79265 Z" id="Fill-85" fill="#231F20"></path>
                    <path d="M14.91175,31.3081 C14.91175,31.2656 14.92625,31.2656 14.99325,31.2656 C15.04775,31.2821 15.22325,31.3081 15.19825,31.4841 C15.16975,31.6741 14.96725,31.6466 14.85775,31.6331 L14.91175,31.3081 Z" id="Fill-87" fill="#FEFEFE"></path>
                    <path d="M19.30605,31.08005 C19.29605,31.09305 19.25505,31.14555 19.18855,31.24105 C19.17455,31.22605 19.14655,31.21405 19.11855,31.18705 C19.07755,31.15805 19.05105,31.14555 19.03755,31.13205 C19.01055,31.17255 18.96855,31.21405 18.91705,31.26555 C18.88905,31.25305 18.84705,31.21405 18.76755,31.15805 C18.79455,31.09305 18.83355,31.05255 18.90305,31.01105 C18.91705,31.01105 18.94255,31.02405 18.96855,31.05255 C18.99755,31.08005 19.02305,31.10505 19.03755,31.10505 C19.05105,31.09305 19.06605,31.08005 19.09205,31.03855 C19.11855,31.01105 19.14655,30.98355 19.14655,30.97005 C19.18855,30.99655 19.24005,31.03855 19.30605,31.08005" id="Fill-89" fill="#231F20"></path>
                    <path d="M19.48525,32.03855 L19.48525,32.05205 C19.49725,32.10705 19.48525,32.16105 19.44525,32.22905 L19.39125,32.24205 C19.29625,32.24205 19.22775,32.21555 19.18825,32.14805 C19.16125,32.10705 19.14625,32.02505 19.13275,31.93105 C19.13275,31.91705 19.11875,31.90405 19.09225,31.90405 C19.03725,31.91705 18.98475,31.95805 18.94275,32.03855 C18.91675,32.12205 18.88925,32.20255 18.86325,32.28255 C18.83325,32.36455 18.79425,32.41755 18.75225,32.41755 C18.67325,32.41755 18.61825,32.35155 18.56375,32.21555 C18.53725,32.12205 18.50925,32.01155 18.50925,31.90405 C18.49725,31.70205 18.56375,31.53855 18.71525,31.44155 C18.76725,31.41605 18.82125,31.40305 18.90325,31.40305 C18.91675,31.39005 18.94275,31.39005 18.98475,31.39005 L19.06575,31.39005 C19.14625,31.39005 19.21475,31.37705 19.25525,31.33655 C19.25525,31.39005 19.20275,31.41605 19.10525,31.43055 C19.07775,31.44155 19.01075,31.44155 18.91675,31.45705 C18.79425,31.45705 18.70175,31.51055 18.64525,31.59355 C18.59175,31.67405 18.56375,31.76855 18.57925,31.89055 C18.57925,31.95805 18.59175,32.02505 18.61825,32.09505 C18.65825,32.18755 18.71525,32.22905 18.76725,32.21555 C18.79425,32.21555 18.82125,32.17355 18.86325,32.09505 C18.91675,31.94455 18.95825,31.87755 18.96875,31.84955 C19.01075,31.76855 19.07775,31.71505 19.13275,31.71505 C19.17475,31.71505 19.20275,31.72805 19.20275,31.76855 C19.20275,31.76855 19.21475,31.79605 19.21475,31.86205 C19.21475,31.98605 19.29625,32.05205 19.43025,32.05205 C19.45775,32.03855 19.47025,32.03855 19.48525,32.03855" id="Fill-91" fill="#231F20"></path>
                    <path d="M19.9721,31.2263 C19.9591,31.2408 19.9301,31.2968 19.8641,31.3898 C19.8351,31.3768 19.8226,31.3633 19.7806,31.3498 C19.7556,31.3218 19.7296,31.2968 19.7146,31.2968 C19.6901,31.3218 19.6471,31.3633 19.5941,31.4303 C19.5661,31.4163 19.5121,31.3898 19.4451,31.3218 C19.4581,31.2653 19.4976,31.2138 19.5661,31.1723 C19.5786,31.1723 19.6071,31.1873 19.6331,31.2138 C19.6611,31.2408 19.6901,31.2533 19.7011,31.2653 C19.7146,31.2533 19.7401,31.2263 19.7556,31.1998 C19.7806,31.1583 19.8076,31.1323 19.8076,31.1193 C19.8481,31.1458 19.9051,31.1873 19.9721,31.2263" id="Fill-93" fill="#231F20"></path>
                    <path d="M19.9721,31.71485 C19.9851,31.75485 19.9591,31.84935 19.9051,31.97335 C19.8481,32.13435 19.6901,32.21585 19.4451,32.22935 C19.4451,32.20235 19.4581,32.13435 19.4851,32.03835 C19.6071,32.01185 19.6741,31.99885 19.7011,31.99885 C19.7806,31.97335 19.8481,31.93085 19.8911,31.89085 C19.8786,31.84935 19.8641,31.82185 19.8481,31.80835 C19.8226,31.84935 19.7961,31.86235 19.7556,31.86235 L19.7146,31.86235 C19.7011,31.84935 19.6901,31.82185 19.6901,31.79585 C19.6901,31.76835 19.7011,31.71485 19.7296,31.64685 C19.7686,31.57935 19.7961,31.53835 19.8226,31.53835 C19.8481,31.53835 19.8786,31.55135 19.9171,31.60735 C19.9591,31.64685 19.9721,31.68735 19.9721,31.71485" id="Fill-95" fill="#231F20"></path>
                    <path d="M20.7968,31.5383 C20.7968,31.5663 20.7968,31.5938 20.7838,31.6333 C20.7838,31.6743 20.7683,31.7018 20.7558,31.7283 C20.7433,31.7283 20.7288,31.7148 20.7028,31.7283 L20.6623,31.7413 C20.6478,31.7818 20.6078,31.8778 20.5663,32.0253 C20.5268,32.1483 20.4723,32.2423 20.4308,32.2968 C20.3648,32.3773 20.2838,32.4173 20.1743,32.4318 C20.0398,32.4578 19.9443,32.4578 19.8483,32.4318 C20.0243,32.3643 20.1458,32.3093 20.2423,32.2423 C20.3648,32.1613 20.4588,32.0383 20.5138,31.9173 C20.5383,31.8373 20.5663,31.7548 20.5943,31.6743 C20.6348,31.5793 20.6743,31.5253 20.7433,31.5108 C20.7433,31.5108 20.7558,31.5108 20.7683,31.5253 C20.7838,31.5253 20.7838,31.5253 20.7968,31.5383" id="Fill-97" fill="#231F20"></path>
                    <path d="M21.433,31.95825 L21.366,31.97325 C21.299,31.98575 21.23,31.97325 21.1765,31.90425 C21.122,31.86225 21.096,31.79575 21.081,31.71475 C21.054,31.57925 21.0265,31.43025 21.0005,31.25325 C20.9565,31.08025 20.945,30.95575 20.931,30.87475 C20.9565,30.82125 20.988,30.75375 21.0125,30.68625 L21.0265,30.69975 C21.096,31.03875 21.1345,31.33625 21.1885,31.60725 C21.2015,31.66025 21.2175,31.71475 21.258,31.74125 C21.299,31.76875 21.3495,31.78175 21.406,31.76875 L21.459,31.76875 L21.474,31.76875 C21.474,31.79575 21.459,31.84925 21.433,31.95825" id="Fill-99" fill="#231F20"></path>
                    <path d="M21.7035,31.9043 C21.6645,31.9173 21.6355,31.9173 21.6225,31.9043 C21.5945,31.9173 21.555,31.9308 21.5,31.9443 C21.5,31.9443 21.474,31.9583 21.418,31.9583 C21.418,31.9043 21.418,31.8493 21.433,31.7688 L21.459,31.7688 C21.474,31.7688 21.4865,31.7548 21.4865,31.7548 C21.5425,31.7548 21.5695,31.7148 21.5945,31.6743 C21.608,31.6468 21.6355,31.5938 21.649,31.5253 C21.6645,31.5253 21.6645,31.5253 21.6755,31.5383 L21.6755,31.7148 C21.689,31.7148 21.7035,31.7148 21.745,31.7018 C21.7845,31.7018 21.797,31.7018 21.797,31.7283 C21.814,31.7548 21.797,31.7818 21.797,31.8218 C21.797,31.8623 21.7845,31.8908 21.7845,31.8908 C21.7845,31.8908 21.7715,31.8908 21.745,31.9043 L21.7035,31.9043 Z" id="Fill-101" fill="#231F20"></path>
                    <path d="M21.91935,30.90235 C21.90685,30.94435 21.86435,30.99635 21.82585,31.07985 C21.77135,31.03885 21.74485,31.02385 21.74485,31.02385 C21.70335,30.99635 21.68885,30.98385 21.67585,30.95535 C21.68885,30.91685 21.73085,30.87485 21.77135,30.80835 C21.79735,30.82135 21.85285,30.86135 21.91935,30.90235" id="Fill-103" fill="#231F20"></path>
                    <path d="M22.10975,31.11915 L22.10975,31.14565 C22.08225,31.17215 22.04125,31.21365 21.99975,31.28215 C21.97275,31.26515 21.95975,31.26515 21.91925,31.24115 C21.89325,31.22615 21.86425,31.21365 21.85275,31.19965 C21.82625,31.24115 21.79725,31.28215 21.74525,31.34965 C21.73075,31.33665 21.70375,31.32215 21.67575,31.29665 C21.63575,31.28215 21.60775,31.26515 21.59475,31.25315 C21.60775,31.22615 21.63575,31.17215 21.68875,31.09315 L21.70375,31.09315 C21.73075,31.10515 21.74525,31.11915 21.78475,31.13215 C21.81375,31.15815 21.83975,31.17215 21.85275,31.17215 C21.86425,31.17215 21.89325,31.11915 21.94675,31.05265 C22.01575,31.08015 22.06825,31.09315 22.10975,31.11915" id="Fill-105" fill="#231F20"></path>
                    <path d="M22.3661,31.5664 C22.3791,31.6074 22.3661,31.6604 22.3526,31.7684 C22.3126,31.7684 22.2986,31.7819 22.3126,31.7819 C22.2726,31.7819 22.2301,31.7819 22.1906,31.7544 C22.1781,31.7414 22.1781,31.7284 22.1486,31.7284 L22.1356,31.7544 C22.1231,31.7684 22.1096,31.7959 22.0951,31.7959 C22.0826,31.8219 22.0531,31.8374 22.0156,31.8374 C21.9881,31.8494 21.9601,31.8494 21.9066,31.8494 C21.9066,31.8624 21.8936,31.8624 21.8641,31.8624 C21.8531,31.8779 21.8396,31.8779 21.8261,31.8779 C21.7971,31.8904 21.7846,31.8904 21.7561,31.8904 C21.7561,31.8624 21.7561,31.8374 21.7716,31.7959 C21.7716,31.7544 21.7846,31.7149 21.7846,31.7019 C21.7846,31.7019 21.7971,31.7019 21.8261,31.6874 C21.8936,31.6744 21.9346,31.6469 21.9601,31.6074 L22.0001,31.4414 L22.0276,31.4414 C22.0276,31.4414 22.0276,31.4574 22.0416,31.4574 C22.0276,31.5109 22.0276,31.5794 22.0156,31.6469 L22.0531,31.6469 C22.0951,31.6469 22.1231,31.6209 22.1356,31.5794 C22.1356,31.5514 22.1486,31.5109 22.1486,31.4574 C22.1651,31.4164 22.1651,31.4034 22.1781,31.3899 C22.1906,31.3899 22.1906,31.4034 22.2041,31.4034 L22.2041,31.5384 C22.2041,31.5514 22.2181,31.5664 22.2436,31.5794 C22.2571,31.5794 22.2856,31.5939 22.3126,31.5794 C22.3526,31.5794 22.3661,31.5664 22.3661,31.5664" id="Fill-107" fill="#231F20"></path>
                    <path d="M22.3793,31.75465 L22.3663,31.72815 C22.3523,31.71465 22.3523,31.68715 22.3523,31.64665 L22.3523,31.56665 L22.3793,31.56665 C22.4473,31.53815 22.5168,31.49715 22.5703,31.44165 C22.6358,31.37715 22.6488,31.29665 22.6358,31.22615 C22.6228,31.14565 22.5703,31.06465 22.5168,30.97015 C22.4473,30.88865 22.3913,30.82115 22.3263,30.74015 L22.3263,30.75365 C22.3263,30.78215 22.3523,30.83715 22.3793,30.93015 C22.3913,30.99615 22.4198,31.06465 22.4328,31.10515 C22.4473,31.19965 22.4608,31.28215 22.4743,31.34965 C22.4608,31.34965 22.4608,31.36365 22.4608,31.36365 C22.4473,31.36365 22.4473,31.34965 22.4328,31.32215 C22.4198,31.26515 22.3913,31.17215 22.3523,31.06465 C22.3123,30.94465 22.2858,30.86115 22.2728,30.80815 C22.2298,30.65865 22.2298,30.52415 22.2573,30.40065 C22.3123,30.42865 22.3793,30.52415 22.5018,30.71315 C22.5973,30.88865 22.6633,31.02415 22.6778,31.09315 C22.7033,31.18715 22.7033,31.30815 22.6778,31.43065 C22.6488,31.56665 22.5973,31.66065 22.5168,31.71465 C22.4873,31.72815 22.4473,31.74165 22.3793,31.75465" id="Fill-109" fill="#231F20"></path>
                    <path d="M22.9081,30.55125 C22.9081,30.57775 22.9081,30.59125 22.9211,30.61875 C22.9211,30.64575 22.9341,30.68625 22.9471,30.72625 C22.9751,30.76675 22.9886,30.80825 22.9886,30.83725 C23.0436,31.01075 23.0706,31.14575 23.0571,31.21375 L23.0436,31.22625 L23.0151,31.15825 C23.0021,31.10525 22.9751,31.02375 22.9341,30.91675 C22.8961,30.80825 22.8666,30.72625 22.8531,30.67175 C22.8136,30.51225 22.7996,30.37425 22.8291,30.25225 C22.9081,30.29325 22.9886,30.38775 23.0971,30.55125 C23.1911,30.69975 23.2451,30.83725 23.2736,30.92975 C23.3266,31.10525 23.3266,31.25325 23.2866,31.37675 C23.2321,31.52525 23.1231,31.62075 22.9616,31.67425 C22.9211,31.68725 22.8961,31.68725 22.8531,31.70175 C22.8531,31.67425 22.8791,31.66025 22.9081,31.63325 C22.9471,31.60725 22.9751,31.59375 22.9886,31.57925 C23.0706,31.47025 23.1356,31.38975 23.1756,31.32225 C23.2321,31.21375 23.2451,31.10525 23.2181,31.01075 C23.1911,30.92975 23.1486,30.84925 23.0841,30.76675 C23.0151,30.69975 22.9616,30.61875 22.9081,30.55125" id="Fill-111" fill="#231F20"></path>
                    <path d="M9.9015,22.16135 C10.1825,22.65885 11.0725,22.79535 12.5465,22.56735 L12.52,22.39585 C10.7825,22.66385 10.2185,22.37085 10.0525,22.07535 C9.7505,21.54485 10.4795,20.65535 10.4865,20.64585 L10.353,20.53485 C10.32,20.57535 9.5415,21.52585 9.9015,22.16135" id="Fill-113" fill="#FEFEFE"></path>
                    <path d="M25.4091,20.6919 C25.4151,20.7014 26.1446,21.5924 25.8431,22.1244 C25.6766,22.4174 25.1131,22.7109 23.3741,22.4414 L23.3466,22.6129 C24.8221,22.8419 25.7116,22.7059 25.9951,22.2099 C26.3546,21.5744 25.5751,20.6234 25.5421,20.5819 L25.4091,20.6919 Z" id="Fill-115" fill="#FEFEFE"></path>
                    <path d="M12.87295,30.97145 L12.82495,30.96595 C12.81845,30.82045 12.72695,30.65045 12.54595,30.62495 C12.45695,30.61045 12.36095,30.65145 12.34445,30.75845 C12.30895,31.01495 12.88645,31.13245 12.83445,31.48395 C12.81745,31.62945 12.67195,31.77845 12.42345,31.74145 C12.29195,31.72045 12.21395,31.64995 12.16345,31.64445 C12.12445,31.63795 12.10195,31.66545 12.09995,31.69245 L12.05995,31.68545 L12.05995,31.31645 L12.10095,31.32195 C12.12145,31.40745 12.17895,31.64445 12.41295,31.67545 C12.55295,31.69595 12.63845,31.60745 12.65045,31.51695 C12.66495,31.41795 12.64445,31.35495 12.40895,31.17095 C12.26345,31.05945 12.16345,30.96895 12.18545,30.79795 C12.21545,30.60295 12.38645,30.52995 12.54345,30.55345 C12.64945,30.56795 12.73495,30.64045 12.77895,30.64595 C12.82495,30.65245 12.84295,30.61645 12.84745,30.59645 L12.88595,30.60145 L12.87295,30.97145 Z" id="Fill-117" fill="#231F20"></path>
                    <path d="M13.7853,31.8806 C13.6993,31.8546 13.6828,31.8421 13.7013,31.7171 L13.7488,31.3776 C13.7578,31.3076 13.7848,31.1051 13.5703,31.0726 C13.4658,31.0596 13.3718,31.1026 13.2978,31.1806 L13.2968,31.1806 L13.3673,30.6616 L13.3583,30.6566 C13.2698,30.6741 13.1838,30.6861 13.1003,30.6966 L13.0963,30.7256 C13.1028,30.7241 13.1188,30.7261 13.1293,30.7261 C13.2058,30.7381 13.2018,30.7721 13.1938,30.8256 L13.0803,31.6321 C13.0643,31.7571 13.0458,31.7656 12.9508,31.7651 L12.9468,31.7906 L13.3233,31.8421 L13.3273,31.8176 C13.2443,31.7966 13.2123,31.7841 13.2288,31.6521 L13.2868,31.2396 C13.3688,31.1681 13.4413,31.1506 13.4908,31.1581 C13.5898,31.1711 13.6178,31.2431 13.6028,31.3566 L13.5548,31.6981 C13.5338,31.8296 13.5013,31.8321 13.4143,31.8306 L13.4103,31.8571 L13.7813,31.9066 L13.7853,31.8806 Z" id="Fill-119" fill="#231F20"></path>
                    <path d="M14.3395,31.7666 C14.331,31.8201 14.324,31.8386 14.2655,31.8581 C14.2505,31.8621 14.19,31.8776 14.1535,31.8731 C14.0895,31.8646 14.0455,31.8041 14.0555,31.7241 L14.0565,31.7201 C14.065,31.6616 14.0955,31.5696 14.3715,31.5191 L14.3395,31.7666 Z M14.595,31.9011 C14.575,31.9156 14.5495,31.9276 14.5135,31.9226 C14.463,31.9171 14.4695,31.8661 14.4765,31.8176 L14.5185,31.4831 C14.5345,31.3796 14.5565,31.2081 14.2955,31.1731 C14.095,31.1456 13.9955,31.2571 13.9865,31.3251 C13.983,31.3521 13.996,31.4046 14.053,31.4106 C14.0955,31.4176 14.135,31.3831 14.1395,31.3486 C14.142,31.3326 14.137,31.3061 14.141,31.2806 C14.1465,31.2261 14.218,31.2051 14.277,31.2126 C14.3275,31.2201 14.407,31.2511 14.391,31.3746 L14.3765,31.4771 C14.079,31.5491 13.9165,31.5871 13.8935,31.7576 C13.8785,31.8731 13.962,31.9491 14.0565,31.9611 C14.152,31.9741 14.2535,31.9181 14.3255,31.8701 C14.3185,31.9936 14.391,32.0071 14.4235,32.0091 C14.451,32.0136 14.505,32.0196 14.591,31.9461 L14.595,31.9011 Z" id="Fill-121" fill="#231F20"></path>
                    <path d="M14.7516,31.89035 C14.7396,31.98585 14.7111,31.98685 14.6116,31.99235 L14.6086,32.01835 L15.0291,32.07185 L15.0336,32.04635 C14.9421,32.03235 14.8846,32.01635 14.9006,31.89935 L14.9501,31.51285 C14.9571,31.45735 15.0456,31.38185 15.0866,31.38635 C15.1286,31.39185 15.1391,31.45535 15.1996,31.46285 C15.2431,31.46835 15.2701,31.43885 15.2746,31.39635 C15.2831,31.33835 15.2531,31.29735 15.1931,31.29235 C15.1281,31.28185 15.0636,31.30985 14.9656,31.42185 L14.9611,31.42185 L14.9806,31.26535 L14.9731,31.26285 C14.8836,31.28635 14.7921,31.30635 14.7026,31.32185 L14.6986,31.34985 C14.7156,31.34885 14.7356,31.34885 14.7596,31.34985 C14.7871,31.35285 14.8211,31.35985 14.8066,31.46285 L14.7516,31.89035 Z" id="Fill-123" fill="#231F20"></path>
                    <path d="M15.36345,32.1926 C15.34395,32.3331 15.33145,32.4321 15.24495,32.4181 C15.18345,32.4111 15.17845,32.3076 15.10395,32.2981 C15.06995,32.2916 15.02995,32.3151 15.02445,32.3546 C15.01745,32.4176 15.09445,32.4596 15.17445,32.4711 C15.40295,32.5001 15.49595,32.3331 15.51995,32.1341 L15.61695,31.3496 L15.60945,31.3431 C15.51295,31.3666 15.41895,31.3866 15.32495,31.4021 L15.32095,31.4291 C15.34745,31.4281 15.37245,31.4281 15.39595,31.4321 C15.42395,31.4351 15.45595,31.4411 15.44345,31.5431 L15.36345,32.1926 Z M15.47795,31.0286 C15.47345,31.0606 15.49195,31.1181 15.55345,31.1271 C15.60745,31.1321 15.65045,31.0996 15.65645,31.0501 C15.66295,31.0021 15.62795,30.9571 15.57695,30.9511 C15.51395,30.9446 15.48195,30.9951 15.47795,31.0286 L15.47795,31.0286 Z" id="Fill-125" fill="#231F20"></path>
                    <path d="M16.44425,32.1279 C16.42325,32.1414 16.39825,32.1569 16.36125,32.1504 C16.31075,32.1464 16.31775,32.0964 16.32125,32.0464 L16.36125,31.7099 C16.37325,31.6074 16.39425,31.4369 16.13025,31.4074 C15.92975,31.3819 15.83225,31.4954 15.82375,31.5624 C15.82125,31.5899 15.83775,31.6404 15.89075,31.6469 C15.93675,31.6549 15.97175,31.6199 15.97825,31.5834 C15.97975,31.5684 15.97175,31.5404 15.97825,31.5159 C15.98475,31.4624 16.05325,31.4389 16.11175,31.4454 C16.16575,31.4534 16.24225,31.4809 16.22925,31.6044 L16.21725,31.7074 C15.92025,31.7849 15.76025,31.8249 15.74075,31.9979 C15.72725,32.1119 15.80925,32.1874 15.90375,32.1979 C16.00125,32.2094 16.10125,32.1494 16.17325,32.1004 C16.16725,32.2279 16.24125,32.2374 16.27175,32.2409 C16.29975,32.2429 16.35575,32.2499 16.43825,32.1734 L16.44425,32.1279 Z M16.18325,31.9989 C16.17775,32.0504 16.16875,32.0704 16.11225,32.0909 C16.09675,32.0969 16.04025,32.1119 15.99925,32.1084 C15.93575,32.0999 15.89225,32.0414 15.90025,31.9609 L15.90125,31.9584 C15.90925,31.8989 15.93825,31.8044 16.21275,31.7489 L16.18325,31.9989 Z" id="Fill-127" fill="#231F20"></path>
                    <path d="M17.2411,32.2981 C17.1571,32.2746 17.1406,32.2626 17.1531,32.1391 L17.1856,31.7961 C17.1946,31.7271 17.2106,31.5206 16.9961,31.4991 C16.8911,31.4886 16.8001,31.5361 16.7296,31.6171 L16.7271,31.6171 L16.7776,31.0951 L16.7721,31.0901 C16.6836,31.1111 16.5946,31.1271 16.5131,31.1426 L16.5116,31.1691 C16.5156,31.1681 16.5331,31.1691 16.5436,31.1706 C16.6221,31.1771 16.6181,31.2141 16.6131,31.2646 L16.5326,32.0761 C16.5196,32.2011 16.4991,32.2126 16.4051,32.2151 L16.4011,32.2401 L16.7796,32.2781 L16.7821,32.2506 C16.6981,32.2336 16.6656,32.2231 16.6781,32.0906 L16.7211,31.6756 C16.8001,31.6006 16.8721,31.5801 16.9236,31.5871 C17.0206,31.5956 17.0506,31.6666 17.0386,31.7816 L17.0061,32.1231 C16.9896,32.2561 16.9591,32.2616 16.8716,32.2616 L16.8681,32.2851 L17.2391,32.3236 L17.2411,32.2981 Z" id="Fill-129" fill="#231F20"></path>
                </g>
                <path d="M39.0114074,21.7284835 L40.1267538,21.7284835 L40.1267538,2.84039446 L39.0114074,2.84039446 L39.0114074,21.7284835 Z M39.0114074,42.0856329 L40.1267538,42.0856329 L40.1267538,27.1299412 L39.0114074,27.1299412 L39.0114074,42.0856329 Z M31.9367322,18.0817478 L33.0520786,18.0817478 L33.0520786,2.84039446 L31.9367322,2.84039446 L31.9367322,18.0817478 Z M31.9367322,42.0856329 L33.0520786,42.0856329 L33.0520786,23.3451225 L31.9367322,23.3451225 L31.9367322,42.0856329 Z M24.862057,13.4838617 L25.9774034,13.4838617 L25.9774034,2.83999881 L24.862057,2.83999881 L24.862057,13.4838617 Z M24.862057,42.0856329 L25.9774034,42.0856329 L25.9774034,19.0317111 L24.862057,19.0317111 L24.862057,42.0856329 Z M17.7272425,25.2252666 L18.8425889,25.2252666 L18.8425889,2.83999881 L17.7272425,2.83999881 L17.7272425,25.2252666 Z M17.7272425,42.0856329 L18.8425889,42.0856329 L18.8425889,29.6597479 L17.7272425,29.6597479 L17.7272425,42.0856329 Z M10.9097419,20.7235243 L12.0250883,20.7235243 L12.0250883,2.83999881 L10.9097419,2.83999881 L10.9097419,20.7235243 Z M10.9097419,42.0856329 L12.0250883,42.0856329 L12.0250883,26.0248818 L10.9097419,26.0248818 L10.9097419,42.0856329 Z M4.25089818,16.0156467 L5.36624461,16.0156467 L5.36624461,2.84039446 L4.25089818,2.84039446 L4.25089818,16.0156467 Z M4.25089818,42.0856329 L5.36624461,42.0856329 L5.36624461,22.3781461 L4.25089818,22.3781461 L4.25089818,42.0856329 Z M6.39488462e-14,44.9256317 L44.377652,44.9256317 L44.377652,7.10542736e-14 L6.39488462e-14,7.10542736e-14 L6.39488462e-14,44.9256317 Z" id="Fill-108" fill="#8D6746"></path>
            </g>
        </g>
    </g>
</svg>